<svg width="46" height="61" viewBox="0 0 46 61" fill="none" xmlns="http://www.w3.org/2000/svg">
<path d="M2.22581 2.34615V0C0.996538 0 0 1.05042 0 2.34615H2.22581ZM43.7742 58.6538V61C45.0034 61 46 59.9495 46 58.6538H43.7742ZM2.22581 58.6538H0C0 59.9495 0.996538 61 2.22581 61V58.6538ZM28.9355 2.34615L30.5093 0.687173C30.092 0.247191 29.5258 0 28.9355 0V2.34615ZM43.7742 17.9872H46C46 17.3649 45.7655 16.7682 45.348 16.3282L43.7742 17.9872ZM25.2258 27.3718C25.2258 26.0761 24.2292 25.0256 23 25.0256C21.7708 25.0256 20.7742 26.0761 20.7742 27.3718H25.2258ZM20.7742 46.141C20.7742 47.4367 21.7708 48.4872 23 48.4872C24.2292 48.4872 25.2258 47.4367 25.2258 46.141H20.7742ZM14.0968 34.4103C12.8675 34.4103 11.871 35.4607 11.871 36.7564C11.871 38.0521 12.8675 39.1026 14.0968 39.1026V34.4103ZM31.9032 39.1026C33.1325 39.1026 34.129 38.0521 34.129 36.7564C34.129 35.4607 33.1325 34.4103 31.9032 34.4103V39.1026ZM43.7742 56.3077H2.22581V61H43.7742V56.3077ZM4.45161 58.6538V2.34615H0V58.6538H4.45161ZM2.22581 4.69231H28.9355V0H2.22581V4.69231ZM41.5484 17.9872V58.6538H46V17.9872H41.5484ZM27.3617 4.00513L42.2004 19.6462L45.348 16.3282L30.5093 0.687173L27.3617 4.00513ZM23.7419 2.34615V14.859H28.1935V2.34615H23.7419ZM31.9032 23.4615H43.7742V18.7692H31.9032V23.4615ZM23.7419 14.859C23.7419 19.61 27.3958 23.4615 31.9032 23.4615V18.7692C29.8543 18.7692 28.1935 17.0186 28.1935 14.859H23.7419ZM20.7742 27.3718V46.141H25.2258V27.3718H20.7742ZM14.0968 39.1026H31.9032V34.4103H14.0968V39.1026Z" fill="#1976D2"/>
</svg>
