<svg width="40" height="40" viewBox="0 0 40 40" fill="none" xmlns="http://www.w3.org/2000/svg">
<path d="M31.6667 5H8.33333C6.49238 5 5 6.49238 5 8.33333V31.6667C5 33.5076 6.49238 35 8.33333 35H31.6667C33.5076 35 35 33.5076 35 31.6667V8.33333C35 6.49238 33.5076 5 31.6667 5Z" fill="#90CAF9"/>
<path fill-rule="evenodd" clip-rule="evenodd" d="M22.707 15.293C22.8945 15.4805 22.9998 15.7349 22.9998 16C22.9998 16.2652 22.8945 16.5195 22.707 16.707L19.414 20L22.707 23.293C22.8892 23.4816 22.99 23.7342 22.9877 23.9964C22.9854 24.2586 22.8802 24.5094 22.6948 24.6948C22.5094 24.8802 22.2586 24.9854 21.9964 24.9877C21.7342 24.99 21.4816 24.8892 21.293 24.707L17.293 20.707C17.1055 20.5195 17.0002 20.2652 17.0002 20C17.0002 19.7349 17.1055 19.4805 17.293 19.293L21.293 15.293C21.4805 15.1055 21.7348 15.0002 22 15.0002C22.2652 15.0002 22.5195 15.1055 22.707 15.293Z" fill="black"/>
</svg>
