<svg width="58" height="48" viewBox="0 0 58 48" fill="none" xmlns="http://www.w3.org/2000/svg">
<path d="M8.28571 47.9992C6.08821 47.9992 3.9807 47.1197 2.42683 45.5542C0.872957 43.9887 0 41.8654 0 39.6515V4.17384C0 3.06687 0.436478 2.00524 1.21341 1.22249C1.99035 0.439743 3.0441 0 4.14286 0L24.8571 0C25.9559 0 27.0096 0.439743 27.7866 1.22249C28.5635 2.00524 29 3.06687 29 4.17384V6.26076H49.7143C51.9118 6.26076 54.0193 7.14025 55.5732 8.70574C57.127 10.2712 58 12.3945 58 14.6084V39.6515C58 41.8654 57.127 43.9887 55.5732 45.5542C54.0193 47.1197 51.9118 47.9992 49.7143 47.9992H8.28571Z" fill="#90CAF9"/>
<path d="M49.7149 46.9565C53.7121 46.9565 56.9641 43.6794 56.9641 39.6513V14.6089C56.9641 10.5807 53.7121 7.3036 49.7149 7.3036H29.0008H27.9651V6.26013V4.17342C27.9651 2.44756 26.5706 1.04346 24.8565 1.04346H4.14244C2.42939 1.04346 1.03571 2.44756 1.03571 4.17342V14.6089V39.6513C1.03571 43.6794 4.28767 46.9565 8.28488 46.9565H49.7149ZM49.7149 48H8.28488C3.70993 48 0 44.2623 0 39.6513V14.6089V4.17342C0 1.86884 1.85496 0 4.14244 0H24.8565C27.1459 0 29.0008 1.86884 29.0008 4.17342V6.26013H49.7149C54.2899 6.26013 57.9998 9.99781 57.9998 14.6089V39.6513C57.9998 44.2623 54.2899 48 49.7149 48Z" fill="#90CAF9"/>
</svg>
