<svg width="19" height="21" viewBox="0 0 19 21" fill="none" xmlns="http://www.w3.org/2000/svg">
<path d="M16.6226 7.61529H16.1731V5.15759C16.1733 2.39819 13.1797 0.153236 9.50014 0.153236C5.82067 0.153236 2.82712 2.39819 2.82712 5.15759V7.61529H2.37745C1.06659 7.61529 0 8.41523 0 9.39837V19.0636C0 20.0467 1.06659 20.8467 2.37745 20.8467H16.6226C17.9334 20.8467 19 20.0467 19 19.0636V9.39837C19 8.41523 17.9335 7.61529 16.6226 7.61529ZM4.86493 5.15759C4.86493 3.24093 6.94431 1.68159 9.50014 1.68159C12.056 1.68159 14.1353 3.24093 14.1353 5.15759V7.61529H4.86493V5.15759ZM16.9622 19.0637C16.9622 19.2018 16.8066 19.3184 16.6226 19.3184H2.37745C2.19336 19.3184 2.03781 19.2018 2.03781 19.0637V9.39837C2.03781 9.26031 2.19336 9.14364 2.37745 9.14364H3.84603H15.1542H16.6226C16.8066 9.14364 16.9622 9.26031 16.9622 9.39837V19.0637Z" fill="#1976D2"/>
<path d="M8.49975 11.004C7.93704 11.004 7.48083 11.3461 7.48083 11.7682V14.694C7.48083 15.1161 7.93704 15.4582 8.49975 15.4582C9.06246 15.4582 9.51866 15.1161 9.51866 14.694V11.7682C9.51866 11.3461 9.06246 11.004 8.49975 11.004Z" fill="#1976D2"/>
</svg>
