<svg width="20" height="22" viewBox="0 0 20 22" fill="none" xmlns="http://www.w3.org/2000/svg">
<g clip-path="url(#clip0_762_798)">
<path d="M15 7.3889C15 5.95231 14.4732 4.57456 13.5355 3.55873C12.5979 2.54291 11.3261 1.97223 10 1.97223C8.67392 1.97223 7.40215 2.54291 6.46447 3.55873C5.52678 4.57456 5 5.95231 5 7.3889C5 13.7083 2.5 15.5139 2.5 15.5139H17.5C17.5 15.5139 15 13.7083 15 7.3889Z" stroke="#1976D2" stroke-width="2" stroke-linecap="round" stroke-linejoin="round"/>
<path d="M11.4417 19.125C11.2952 19.3986 11.0849 19.6257 10.8319 19.7836C10.5789 19.9415 10.292 20.0246 10 20.0246C9.70803 20.0246 9.42117 19.9415 9.16816 19.7836C8.91515 19.6257 8.70486 19.3986 8.55835 19.125" stroke="#1976D2" stroke-width="2" stroke-linecap="round" stroke-linejoin="round"/>
</g>
<defs>
<clipPath id="clip0_762_798">
<rect width="20" height="21.6667" fill="white" transform="translate(0 0.166672)"/>
</clipPath>
</defs>
</svg>
