<svg width="165" height="144" viewBox="0 0 165 144" fill="none" xmlns="http://www.w3.org/2000/svg">
<path d="M149.337 130.194L146.059 131.463L148.883 138.759L152.162 137.49L149.337 130.194Z" fill="#E4897B"/>
<path d="M163.995 139.694H160.538L159.266 131.692H162.723L163.995 139.694Z" fill="#E4897B"/>
<path d="M160.313 139.294H164.201C164.268 139.294 164.333 139.317 164.385 139.36C164.436 139.403 164.47 139.463 164.481 139.529L164.986 142.604C164.997 142.681 164.991 142.759 164.968 142.834C164.946 142.908 164.908 142.976 164.856 143.034C164.805 143.092 164.741 143.139 164.67 143.17C164.599 143.201 164.522 143.216 164.445 143.215C163.09 143.192 162.434 143.114 160.726 143.114C159.675 143.114 156.503 143.224 155.052 143.224C153.601 143.224 153.496 141.787 154.097 141.659C156.792 141.076 158.849 140.281 159.744 139.506C159.904 139.373 160.105 139.298 160.313 139.294Z" fill="#263238"/>
<path d="M148.809 138.064L152.481 136.995C152.546 136.973 152.615 136.976 152.678 137.002C152.74 137.028 152.791 137.076 152.821 137.137L154.198 139.891C154.231 139.961 154.248 140.037 154.248 140.114C154.248 140.191 154.231 140.268 154.198 140.337C154.165 140.407 154.117 140.469 154.058 140.518C153.998 140.567 153.929 140.602 153.854 140.621C152.523 140.984 151.623 141.213 149.956 141.7C148.8 142.035 147.629 142.581 146.486 142.944C145.701 143.197 143.846 143.206 142.887 143.206C141.468 143.206 141.152 141.709 141.757 141.64C143.295 141.466 143.507 141.548 144.356 141.122C145.743 140.512 147.001 139.643 148.061 138.56C148.263 138.333 148.521 138.162 148.809 138.064V138.064Z" fill="#263238"/>
<path d="M143.681 27.7823C143.396 28.503 143.125 29.1319 142.818 29.793C142.51 30.454 142.203 31.0875 141.877 31.7257C141.217 33.0202 140.486 34.2769 139.687 35.49C138.853 36.782 137.887 37.9836 136.804 39.0753C136.189 39.698 135.501 40.2451 134.757 40.705C133.822 41.2863 132.753 41.6153 131.653 41.6599C131.346 41.668 131.038 41.6464 130.735 41.5956C130.47 41.5524 130.208 41.4926 129.95 41.4166C129.512 41.2832 129.086 41.1159 128.674 40.9162C127.968 40.5622 127.289 40.1587 126.64 39.7088C125.45 38.8812 124.315 37.9764 123.243 37.0003C121.162 35.1159 119.219 33.083 117.431 30.9177L119.213 29.1273C121.32 30.7892 123.482 32.451 125.64 33.9659C126.691 34.7116 127.778 35.4042 128.899 36.0409C129.405 36.3289 129.931 36.5791 130.474 36.7892C130.771 36.9383 131.1 37.0124 131.433 37.0049C131.696 36.9271 131.942 36.801 132.158 36.6331C132.556 36.3392 132.922 36.0054 133.251 35.6369C134.041 34.7323 134.748 33.7581 135.363 32.7264C136.024 31.6522 136.643 30.5183 137.231 29.3615C137.525 28.783 137.809 28.1954 138.085 27.6078C138.36 27.0202 138.64 26.4005 138.874 25.8588L143.681 27.7823Z" fill="#E4897B"/>
<path d="M119.704 30.2336L119.213 27.5114L115.71 29.6598C115.71 29.6598 116.816 31.3767 117.982 31.4043L119.704 30.2336Z" fill="#E4897B"/>
<path d="M117.578 25.8726L114.842 27.7318L115.705 29.6599L119.208 27.5114L117.578 25.8726Z" fill="#E4897B"/>
<path d="M145.288 24.2658C146.132 27.4058 141.532 33.7134 141.532 33.7134L135.491 30.3255C135.491 30.3255 136.616 27.7318 137.998 25.0921C140.224 20.8274 144.319 20.6851 145.288 24.2658Z" fill="#114F8C"/>
<path opacity="0.6" d="M145.288 24.2658C146.132 27.4058 141.532 33.7134 141.532 33.7134L135.491 30.3255C135.491 30.3255 136.616 27.7318 137.998 25.0921C140.224 20.8274 144.319 20.6851 145.288 24.2658Z" fill="#FAFAFA"/>
<path d="M137.901 31.6706L140.275 33.0019L140.688 25.7211C139.311 26.7815 138.333 29.9766 137.901 31.6706Z" fill="#114F8C"/>
<path opacity="0.3" d="M137.901 31.6706L140.275 33.0019L140.688 25.7211C139.311 26.7815 138.333 29.9766 137.901 31.6706Z" fill="#FAFAFA"/>
<path d="M149.827 130.815L146.538 132.085L147.994 135.858L151.284 134.588L149.827 130.815Z" fill="#CE6F64"/>
<path d="M162.728 131.692H159.266L159.923 135.819H163.379L162.728 131.692Z" fill="#CE6F64"/>
<path d="M160.694 21.7226C157.173 35.0953 158.146 48.9407 157.852 51.7778H139.366C136.611 32.3408 141.321 21.9016 141.321 21.9016C141.321 21.9016 142.79 21.5068 144.682 21.1993L145.21 21.1212C145.692 21.0524 146.187 20.9881 146.692 20.9422C149.31 20.7906 151.934 20.7906 154.552 20.9422C154.96 20.9422 155.373 20.9927 155.777 21.0248L156.259 21.0707C158.642 21.3048 160.694 21.7226 160.694 21.7226Z" fill="#114F8C"/>
<path opacity="0.6" d="M160.694 21.7226C157.173 35.0953 158.146 48.9407 157.852 51.7778H139.366C136.611 32.3408 141.321 21.9016 141.321 21.9016C141.321 21.9016 142.79 21.5068 144.682 21.1993L145.21 21.1212C145.692 21.0524 146.187 20.9881 146.692 20.9422C149.31 20.7906 151.934 20.7906 154.552 20.9422C154.96 20.9422 155.373 20.9927 155.777 21.0248L156.259 21.0707C158.642 21.3048 160.694 21.7226 160.694 21.7226Z" fill="#FAFAFA"/>
<path d="M138.778 46.5169C138.842 47.3463 138.923 48.1971 139.021 49.0693L152.793 44.6072C154.94 43.967 156.805 42.6151 158.082 40.7739C158.132 39.5482 158.201 38.2583 158.307 36.9132C158.353 36.2567 158.412 35.5865 158.472 34.9071C158.532 34.2276 158.614 33.4794 158.697 32.754L138.778 46.5169Z" fill="#114F8C"/>
<path opacity="0.3" d="M138.778 46.5169C138.842 47.3463 138.923 48.1971 139.021 49.0693L152.793 44.6072C154.94 43.967 156.805 42.6151 158.082 40.7739C158.132 39.5482 158.201 38.2583 158.307 36.9132C158.353 36.2567 158.412 35.5865 158.472 34.9071C158.532 34.2276 158.614 33.4794 158.697 32.754L138.778 46.5169Z" fill="#FAFAFA"/>
<path d="M155.777 21.0248L155.594 21.4196C155.534 21.5527 154.07 24.656 148.685 24.656C147.969 24.656 145.788 24.656 145.104 23.1319C144.973 22.8095 144.915 22.4623 144.933 22.1148C144.951 21.7673 145.046 21.4281 145.21 21.1212L144.682 21.1992C144.539 21.5346 144.466 21.8953 144.466 22.2597C144.466 22.6241 144.539 22.9847 144.682 23.3201C145.485 25.1151 147.895 25.1151 148.68 25.1151C154.354 25.1151 155.943 21.7501 156.025 21.6078L156.269 21.0707L155.777 21.0248Z" fill="#FAFAFA"/>
<path d="M154.29 12.0913C153.647 14.6208 152.881 19.2528 154.552 20.9421C154.552 20.9421 153.386 23.5083 148.685 23.5083C144.392 23.5083 146.692 20.9421 146.692 20.9421C149.552 20.2673 149.603 18.1877 149.226 16.2137L154.29 12.0913Z" fill="#E4897B"/>
<path d="M152.224 13.7715L149.226 16.2091C149.322 16.6624 149.375 17.1234 149.387 17.5863C150.264 18.4586 152.022 16.2505 152.206 15.1211C152.292 14.676 152.299 14.2189 152.224 13.7715Z" fill="#CE6F64"/>
<path d="M143.823 10.8655C143.896 11.2755 144.054 11.6658 144.285 12.0119C144.517 12.358 144.817 12.6523 145.168 12.8762C146.123 13.4822 147.005 12.7156 147.046 11.6505C147.101 10.6957 146.67 9.22665 145.554 9.05221C145.311 9.01593 145.063 9.03858 144.83 9.11826C144.598 9.19794 144.388 9.33231 144.218 9.51006C144.049 9.6878 143.924 9.90372 143.856 10.1396C143.787 10.3755 143.776 10.6245 143.823 10.8655Z" fill="#CE6F64"/>
<path d="M146.362 4.19076C144.595 4.85641 143.52 11.6231 145.604 12.7753C147.689 13.9276 149.709 2.93292 146.362 4.19076Z" fill="#263238"/>
<path d="M143.378 6.53658C144.682 7.91379 151.329 6.26114 151.582 3.89235C151.834 1.52356 140.913 3.94744 143.378 6.53658Z" fill="#263238"/>
<path d="M154.194 7.98729C154.07 11.4349 154.171 13.4502 152.49 15.3324C151.975 15.9604 151.296 16.4338 150.528 16.7004C149.76 16.9669 148.934 17.0163 148.14 16.843C147.346 16.6696 146.615 16.2804 146.029 15.7182C145.442 15.156 145.022 14.4426 144.815 13.6568C144.007 10.6361 144.356 5.50832 147.652 3.86486C148.343 3.48511 149.124 3.29737 149.913 3.32109C150.701 3.34482 151.469 3.57916 152.137 3.99979C152.804 4.42042 153.347 5.01202 153.708 5.71319C154.07 6.41436 154.238 7.19956 154.194 7.98729V7.98729Z" fill="#E4897B"/>
<path d="M152.114 0.830295C154.552 0.228916 155.084 0.917518 155.194 2.58393C155.305 4.25035 157.526 3.7867 156.778 6.30239C156.429 7.49137 155.534 7.39038 156.08 8.79054C156.705 10.4019 153 12.3529 152.128 12.3483C150.691 12.3483 151.008 9.35519 152.178 6.63291C153.055 4.59465 150.87 5.15931 148.363 5.92136C142.717 7.63368 138.975 2.70789 142.478 0.348276C144.333 -0.90498 149.433 1.69334 152.114 0.830295Z" fill="#263238"/>
<path d="M155.828 11.6414C155.39 12.4068 154.68 12.9801 153.84 13.2481C152.734 13.5879 152.215 12.6146 152.55 11.5634C152.853 10.6131 153.799 9.29557 154.891 9.41952C155.984 9.54347 156.36 10.6911 155.828 11.6414Z" fill="#E4897B"/>
<path d="M139.366 51.7594C139.366 51.7594 136.262 79.5284 136.019 90.0686C135.767 101.036 146.536 135.241 146.536 135.241L152.045 132.923C152.045 132.923 145.618 101.674 146.536 90.9087C147.491 79.1887 151.517 51.7594 151.517 51.7594H139.366Z" fill="#263238"/>
<path d="M147.073 59.4029C144.604 64.5353 146.27 74.6807 147.61 80.6945C148.12 76.4527 148.721 71.8437 149.295 67.5789C149.24 61.0188 148.731 55.9599 147.073 59.4029Z" fill="#182137"/>
<path d="M151.806 131.141C151.829 131.141 152.458 132.9 152.458 132.9L146.105 135.567L145.099 133.708L151.806 131.141Z" fill="#114F8C"/>
<path opacity="0.6" d="M151.806 131.141C151.829 131.141 152.458 132.9 152.458 132.9L146.105 135.567L145.099 133.708L151.806 131.141Z" fill="#FAFAFA"/>
<path d="M145.921 51.7594C145.921 51.7594 148.295 78.1696 149.869 88.0671C151.591 98.9057 158.357 135.002 158.357 135.002H164.692C164.692 135.002 160.896 99.7779 160.18 89.0495C159.404 77.4029 157.852 51.7594 157.852 51.7594H145.921Z" fill="#263238"/>
<path d="M164.789 133.106C164.812 133.106 165 135.14 165 135.14H158.041L157.545 132.844L164.789 133.106Z" fill="#114F8C"/>
<path opacity="0.6" d="M164.789 133.106C164.812 133.106 165 135.14 165 135.14H158.041L157.545 132.844L164.789 133.106Z" fill="#FAFAFA"/>
<path d="M162.365 131.279C162.35 131.279 162.336 131.273 162.326 131.263C162.316 131.253 162.31 131.239 162.31 131.224C162.273 130.907 158.853 99.0893 158.21 89.4489C157.513 78.9867 156.108 55.7946 156.094 55.5605C156.094 55.5526 156.094 55.5448 156.097 55.5373C156.099 55.5298 156.103 55.5229 156.108 55.5169C156.113 55.5109 156.12 55.506 156.127 55.5025C156.134 55.4989 156.141 55.4968 156.149 55.4962V55.4962C156.164 55.4962 156.179 55.5018 156.19 55.512C156.201 55.5223 156.208 55.5363 156.209 55.5513C156.209 55.7854 157.627 78.9638 158.325 89.4397C158.968 99.0801 162.388 130.875 162.425 131.215C162.426 131.222 162.426 131.23 162.424 131.238C162.422 131.245 162.419 131.252 162.414 131.258C162.409 131.264 162.403 131.269 162.396 131.273C162.389 131.276 162.382 131.279 162.374 131.279H162.365Z" fill="#114F8C"/>
<path opacity="0.5" d="M162.365 131.279C162.35 131.279 162.336 131.273 162.326 131.263C162.316 131.253 162.31 131.239 162.31 131.224C162.273 130.907 158.853 99.0893 158.21 89.4489C157.513 78.9867 156.108 55.7946 156.094 55.5605C156.094 55.5526 156.094 55.5448 156.097 55.5373C156.099 55.5298 156.103 55.5229 156.108 55.5169C156.113 55.5109 156.12 55.506 156.127 55.5025C156.134 55.4989 156.141 55.4968 156.149 55.4962V55.4962C156.164 55.4962 156.179 55.5018 156.19 55.512C156.201 55.5223 156.208 55.5363 156.209 55.5513C156.209 55.7854 157.627 78.9638 158.325 89.4397C158.968 99.0801 162.388 130.875 162.425 131.215C162.426 131.222 162.426 131.23 162.424 131.238C162.422 131.245 162.419 131.252 162.414 131.258C162.409 131.264 162.403 131.269 162.396 131.273C162.389 131.276 162.382 131.279 162.374 131.279H162.365Z" fill="black"/>
<path d="M149.052 9.3781C149.052 9.65813 148.919 9.89684 148.735 9.91061C148.552 9.92439 148.4 9.71321 148.396 9.45155C148.391 9.18988 148.529 8.9328 148.712 8.91903C148.896 8.90526 149.052 9.09806 149.052 9.3781Z" fill="#263238"/>
<path d="M145.903 9.63981C145.903 9.91985 145.77 10.1586 145.586 10.1723C145.402 10.1861 145.251 9.97494 145.246 9.71327C145.242 9.4516 145.379 9.19452 145.563 9.18075C145.747 9.16697 145.894 9.35978 145.903 9.63981Z" fill="#263238"/>
<path d="M146.904 9.69495C146.592 10.5804 146.166 11.4215 145.637 12.1969C146.137 12.6146 146.968 12.3346 146.968 12.3346L146.904 9.69495Z" fill="#DE5753"/>
<path d="M147.298 13.4823C147.277 13.4823 147.257 13.4742 147.241 13.4597C147.226 13.4452 147.217 13.4253 147.216 13.4042C147.216 13.3819 147.224 13.3603 147.24 13.3441C147.255 13.3279 147.276 13.3182 147.298 13.317C147.651 13.2914 147.993 13.1869 148.3 13.0113C148.606 12.8357 148.87 12.5935 149.07 12.3025C149.081 12.2842 149.098 12.2708 149.118 12.2652C149.138 12.2596 149.16 12.2623 149.178 12.2726C149.196 12.283 149.21 12.3001 149.215 12.3204C149.221 12.3406 149.218 12.3622 149.208 12.3805C148.995 12.6978 148.712 12.9621 148.381 13.1531C148.05 13.3441 147.68 13.4567 147.298 13.4823Z" fill="#263238"/>
<path d="M150.034 7.59696C150.009 7.59786 149.984 7.59295 149.961 7.5826C149.938 7.57226 149.917 7.55675 149.901 7.53728C149.776 7.37595 149.614 7.24654 149.429 7.15959C149.244 7.07264 149.041 7.03061 148.836 7.0369C148.815 7.03944 148.794 7.03774 148.774 7.0319C148.754 7.02605 148.735 7.01619 148.719 7.0029C148.702 6.98961 148.689 6.97317 148.679 6.95455C148.669 6.93594 148.663 6.91554 148.662 6.89458C148.66 6.85055 148.676 6.80761 148.705 6.7744C148.734 6.74119 148.774 6.72016 148.818 6.71555C149.076 6.70379 149.333 6.7539 149.568 6.8617C149.803 6.96951 150.008 7.13189 150.167 7.33529C150.181 7.35193 150.19 7.3711 150.196 7.39164C150.202 7.41217 150.203 7.43363 150.2 7.4547C150.197 7.47577 150.19 7.496 150.179 7.51415C150.167 7.53229 150.153 7.54798 150.135 7.56023C150.107 7.58308 150.071 7.59597 150.034 7.59696V7.59696Z" fill="#263238"/>
<path d="M144.539 8.06994C144.516 8.06393 144.494 8.05298 144.475 8.03781C144.46 8.02285 144.448 8.00499 144.439 7.98528C144.431 7.96557 144.427 7.94441 144.427 7.92304C144.427 7.90166 144.431 7.8805 144.439 7.86079C144.448 7.84109 144.46 7.82323 144.475 7.80827C144.634 7.59343 144.842 7.4194 145.081 7.30048C145.321 7.18157 145.585 7.12118 145.852 7.12426C145.874 7.1253 145.894 7.13078 145.913 7.14035C145.932 7.14992 145.949 7.16336 145.962 7.17981C145.976 7.19626 145.986 7.21534 145.991 7.23582C145.997 7.2563 145.998 7.27773 145.995 7.29871C145.988 7.34207 145.965 7.38146 145.932 7.40939C145.898 7.43732 145.855 7.45184 145.811 7.4502V7.4502C145.601 7.45495 145.396 7.50746 145.21 7.60372C145.023 7.69998 144.862 7.83745 144.737 8.00567C144.715 8.03557 144.684 8.05782 144.648 8.06933C144.613 8.08085 144.575 8.08107 144.539 8.06994V8.06994Z" fill="#263238"/>
<path d="M162.471 26.2398L157.692 24.9681C157.692 24.9681 153.009 36.4953 151.357 37.2482C149.107 38.2719 143.405 41.8389 140.986 43.5237C140.848 44.0929 140.954 45.617 141.262 46.0302C145.393 45.2819 153.303 42.2383 154.956 40.6866C158.72 37.161 162.471 26.2398 162.471 26.2398Z" fill="#E4897B"/>
<path d="M163.715 24.9223C164.977 28.9896 160.042 34.5627 160.042 34.5627L153.225 31.7807C154.029 29.425 154.96 27.1141 156.012 24.858C158.109 20.3453 162.438 20.8136 163.715 24.9223Z" fill="#114F8C"/>
<path opacity="0.6" d="M163.715 24.9223C164.977 28.9896 160.042 34.5627 160.042 34.5627L153.225 31.7807C154.029 29.425 154.96 27.1141 156.012 24.858C158.109 20.3453 162.438 20.8136 163.715 24.9223Z" fill="#FAFAFA"/>
<path d="M159.151 139.9C158.919 139.922 158.686 139.86 158.495 139.726C158.436 139.672 158.392 139.605 158.367 139.529C158.342 139.453 158.337 139.372 158.353 139.294C158.355 139.245 158.371 139.198 158.397 139.157C158.424 139.116 158.461 139.083 158.504 139.06C158.894 138.867 159.973 139.551 160.093 139.629C160.106 139.638 160.117 139.651 160.123 139.665C160.13 139.68 160.132 139.696 160.129 139.712C160.125 139.728 160.116 139.743 160.104 139.754C160.092 139.766 160.077 139.773 160.06 139.776C159.763 139.852 159.458 139.893 159.151 139.9V139.9ZM158.692 139.189C158.658 139.181 158.622 139.181 158.587 139.189C158.569 139.198 158.555 139.212 158.544 139.229C158.534 139.246 158.528 139.265 158.527 139.285C158.516 139.339 158.519 139.394 158.535 139.446C158.551 139.498 158.58 139.545 158.619 139.584C159.005 139.759 159.443 139.78 159.845 139.643C159.487 139.411 159.085 139.255 158.665 139.184L158.692 139.189Z" fill="#114F8C"/>
<path d="M160.028 139.776H159.992C159.643 139.579 158.995 138.822 159.073 138.436C159.09 138.376 159.126 138.323 159.176 138.284C159.226 138.246 159.286 138.225 159.349 138.225C159.41 138.215 159.472 138.22 159.531 138.238C159.59 138.256 159.644 138.288 159.689 138.33C160.074 138.656 160.097 139.652 160.097 139.708C160.097 139.731 160.088 139.753 160.072 139.769C160.055 139.786 160.033 139.795 160.01 139.795L160.028 139.776ZM159.413 138.376H159.376C159.271 138.376 159.257 138.441 159.253 138.459C159.193 138.688 159.601 139.258 159.941 139.529C159.94 139.141 159.82 138.762 159.597 138.445C159.546 138.4 159.481 138.376 159.413 138.376V138.376Z" fill="#114F8C"/>
<path d="M146.945 139.327C146.666 139.425 146.361 139.425 146.082 139.327C146.015 139.295 145.957 139.247 145.915 139.187C145.872 139.126 145.846 139.056 145.839 138.982C145.834 138.937 145.839 138.892 145.855 138.85C145.871 138.807 145.897 138.769 145.93 138.739C146.302 138.413 147.799 138.767 147.969 138.808C147.984 138.812 147.998 138.821 148.009 138.833C148.02 138.846 148.026 138.861 148.028 138.877C148.029 138.894 148.025 138.911 148.016 138.926C148.007 138.94 147.994 138.952 147.978 138.959C147.645 139.112 147.299 139.235 146.945 139.327V139.327ZM146.201 138.78C146.148 138.789 146.097 138.812 146.054 138.845C146.041 138.857 146.031 138.873 146.025 138.891C146.02 138.909 146.019 138.927 146.022 138.946C146.023 138.993 146.037 139.039 146.062 139.08C146.087 139.12 146.123 139.153 146.165 139.175C146.408 139.308 146.977 139.203 147.702 138.9C147.213 138.773 146.705 138.733 146.201 138.78V138.78Z" fill="#114F8C"/>
<path d="M147.978 138.95H147.946C147.487 138.867 146.568 138.34 146.541 137.945C146.541 137.853 146.582 137.724 146.798 137.646C146.949 137.595 147.114 137.605 147.257 137.674C147.757 137.922 148.019 138.803 148.028 138.84C148.035 138.853 148.038 138.867 148.038 138.881C148.038 138.896 148.035 138.91 148.028 138.923C148.023 138.931 148.015 138.937 148.006 138.942C147.998 138.947 147.988 138.95 147.978 138.95ZM146.894 137.793H146.844C146.702 137.844 146.706 137.903 146.706 137.922C146.706 138.156 147.372 138.592 147.835 138.739C147.727 138.371 147.501 138.049 147.193 137.821C147.101 137.774 146.994 137.764 146.894 137.793Z" fill="#114F8C"/>
<path d="M104.522 49.207C104.916 48.0855 105.641 47.1103 106.602 46.4109C107.563 45.7115 108.714 45.3209 109.903 45.2911H156.397C157.038 45.276 157.675 45.4013 158.263 45.6584C158.851 45.9154 159.375 46.2979 159.799 46.7791C160.224 47.2602 160.538 47.8284 160.719 48.4436C160.9 49.0589 160.945 49.7065 160.85 50.3409L150.516 138.174C150.329 139.549 149.659 140.812 148.625 141.738C147.591 142.663 146.261 143.19 144.874 143.224H28.271C27.6295 143.24 26.9922 143.115 26.4041 142.859C25.8159 142.602 25.2912 142.219 24.8667 141.738C24.4423 141.257 24.1284 140.688 23.9472 140.072C23.7661 139.457 23.722 138.809 23.8181 138.174L32.623 63.406C32.8102 62.0312 33.4808 60.768 34.5146 59.8427C35.5484 58.9174 36.8779 58.3904 38.265 58.3562H91.9759C97.448 58.3562 102.658 54.5643 104.522 49.207Z" fill="#114F8C"/>
<path opacity="0.1" d="M104.522 49.207C104.916 48.0855 105.641 47.1103 106.602 46.4109C107.563 45.7115 108.714 45.3209 109.903 45.2911H156.397C157.038 45.276 157.675 45.4013 158.263 45.6584C158.851 45.9154 159.375 46.2979 159.799 46.7791C160.224 47.2602 160.538 47.8284 160.719 48.4436C160.9 49.0589 160.945 49.7065 160.85 50.3409L150.516 138.174C150.329 139.549 149.659 140.812 148.625 141.738C147.591 142.663 146.261 143.19 144.874 143.224H28.271C27.6295 143.24 26.9922 143.115 26.4041 142.859C25.8159 142.602 25.2912 142.219 24.8667 141.738C24.4423 141.257 24.1284 140.688 23.9472 140.072C23.7661 139.457 23.722 138.809 23.8181 138.174L32.623 63.406C32.8102 62.0312 33.4808 60.768 34.5146 59.8427C35.5484 58.9174 36.8779 58.3904 38.265 58.3562H91.9759C97.448 58.3562 102.658 54.5643 104.522 49.207Z" fill="#114F8C"/>
<path d="M62.959 10.3205L0.165283 54.1097L41.6122 113.545L104.406 69.7554L62.959 10.3205Z" fill="#114F8C"/>
<path opacity="0.8" d="M62.959 10.3205L0.165283 54.1097L41.6122 113.545L104.406 69.7554L62.959 10.3205Z" fill="#FAFAFA"/>
<path d="M62.7937 11.2446L0 55.0338L41.4469 114.469L104.241 70.6795L62.7937 11.2446Z" fill="#FAFAFA"/>
<path d="M61.5144 19.0724L7.78052 56.5437L36.3291 97.4824L90.063 60.011L61.5144 19.0724Z" fill="#114F8C"/>
<path opacity="0.8" d="M61.5144 19.0724L7.78052 56.5437L36.3291 97.4824L90.063 60.011L61.5144 19.0724Z" fill="#FAFAFA"/>
<path d="M40.9415 54.3118C41.9805 55.8023 42.554 57.5676 42.5893 59.3842C42.6245 61.2008 42.12 62.987 41.1395 64.5168C40.1591 66.0465 38.7468 67.2509 37.0815 67.9775C35.4161 68.7042 33.5726 68.9204 31.7844 68.5988C29.9961 68.2771 28.3435 67.4321 27.0357 66.1708C25.728 64.9094 24.8238 63.2883 24.4378 61.5129C24.0519 59.7374 24.2013 57.8873 24.8674 56.1968C25.5334 54.5063 26.686 53.0515 28.1794 52.0164C30.1771 50.6317 32.6425 50.0957 35.0349 50.526C37.4272 50.9563 39.5514 52.3177 40.9415 54.3118V54.3118Z" fill="#114F8C"/>
<path opacity="0.1" d="M40.9415 54.3118C41.9805 55.8023 42.554 57.5676 42.5893 59.3842C42.6245 61.2008 42.12 62.987 41.1395 64.5168C40.1591 66.0465 38.7468 67.2509 37.0815 67.9775C35.4161 68.7042 33.5726 68.9204 31.7844 68.5988C29.9961 68.2771 28.3435 67.4321 27.0357 66.1708C25.728 64.9094 24.8238 63.2883 24.4378 61.5129C24.0519 59.7374 24.2013 57.8873 24.8674 56.1968C25.5334 54.5063 26.686 53.0515 28.1794 52.0164C30.1771 50.6317 32.6425 50.0957 35.0349 50.526C37.4272 50.9563 39.5514 52.3177 40.9415 54.3118V54.3118Z" fill="#FAFAFA"/>
<path d="M75.2155 50.2674C73.8322 48.8893 72.1627 47.8324 70.3253 47.1715C68.4879 46.5107 66.5276 46.2621 64.5835 46.4434V46.4434C64.5238 46.3608 64.4779 46.269 64.4182 46.1817C62.64 43.6002 60.0078 41.7289 56.9853 40.8975C53.9628 40.0661 50.7438 40.328 47.8954 41.637C45.047 42.946 42.7519 45.2181 41.4143 48.0532C40.0768 50.8882 39.7825 54.1044 40.5834 57.1351C40.1822 57.3242 39.7969 57.5452 39.4311 57.7962C38.1222 58.7063 37.1162 59.988 36.5434 61.4758C35.9705 62.9636 35.8571 64.5891 36.2177 66.142C34.4655 66.8289 32.9725 68.0474 31.9483 69.6263C30.896 71.1961 30.3254 73.0391 30.3066 74.9289C30.2879 76.8186 30.8218 78.6726 31.8427 80.2629C32.546 81.3193 33.4532 82.2245 34.5111 82.9255C35.5689 83.6266 36.7561 84.1093 38.003 84.3453C39.2499 84.5813 40.5314 84.566 41.7723 84.3001C43.0132 84.0342 44.1884 83.5232 45.2292 82.797V82.797L60.6768 72.0227L74.8299 62.1527C76.4035 61.0778 77.4906 59.4264 77.8557 57.556C78.2208 55.6856 77.8347 53.7466 76.7809 52.1588L76.7396 52.0945C76.2878 51.4407 75.7777 50.8291 75.2155 50.2674V50.2674Z" fill="#114F8C"/>
<path opacity="0.3" d="M75.2155 50.2674C73.8322 48.8893 72.1627 47.8324 70.3253 47.1715C68.4879 46.5107 66.5276 46.2621 64.5835 46.4434V46.4434C64.5238 46.3608 64.4779 46.269 64.4182 46.1817C62.64 43.6002 60.0078 41.7289 56.9853 40.8975C53.9628 40.0661 50.7438 40.328 47.8954 41.637C45.047 42.946 42.7519 45.2181 41.4143 48.0532C40.0768 50.8882 39.7825 54.1044 40.5834 57.1351C40.1822 57.3242 39.7969 57.5452 39.4311 57.7962C38.1222 58.7063 37.1162 59.988 36.5434 61.4758C35.9705 62.9636 35.8571 64.5891 36.2177 66.142C34.4655 66.8289 32.9725 68.0474 31.9483 69.6263C30.896 71.1961 30.3254 73.0391 30.3066 74.9289C30.2879 76.8186 30.8218 78.6726 31.8427 80.2629C32.546 81.3193 33.4532 82.2245 34.5111 82.9255C35.5689 83.6266 36.7561 84.1093 38.003 84.3453C39.2499 84.5813 40.5314 84.566 41.7723 84.3001C43.0132 84.0342 44.1884 83.5232 45.2292 82.797V82.797L60.6768 72.0227L74.8299 62.1527C76.4035 61.0778 77.4906 59.4264 77.8557 57.556C78.2208 55.6856 77.8347 53.7466 76.7809 52.1588L76.7396 52.0945C76.2878 51.4407 75.7777 50.8291 75.2155 50.2674V50.2674Z" fill="black"/>
<g style="mix-blend-mode:multiply">
<path d="M64.9427 20.7928L0.601074 62.274L39.8635 123.174L104.205 81.6928L64.9427 20.7928Z" fill="#114F8C"/>
</g>
<path opacity="0.8" d="M64.9427 20.7928L0.601074 62.274L39.8635 123.174L104.205 81.6928L64.9427 20.7928Z" fill="#FAFAFA"/>
<path d="M64.7489 21.7166L0.407227 63.1979L39.6697 124.098L104.011 82.6166L64.7489 21.7166Z" fill="#FAFAFA"/>
<path d="M63.1884 29.494L8.12988 64.9904L35.1738 106.938L90.2323 71.4418L63.1884 29.494Z" fill="#114F8C"/>
<path opacity="0.8" d="M63.1884 29.494L8.12988 64.9904L35.1738 106.938L90.2323 71.4418L63.1884 29.494Z" fill="#FAFAFA"/>
<path d="M42.596 70.8476C43.6534 65.8987 40.4986 61.0297 35.5497 59.9723C30.6008 58.915 25.7318 62.0697 24.6745 67.0186C23.6172 71.9675 26.7719 76.8365 31.7208 77.8938C36.6697 78.9512 41.5387 75.7965 42.596 70.8476Z" fill="#114F8C"/>
<path opacity="0.1" d="M42.596 70.8476C43.6534 65.8987 40.4986 61.0297 35.5497 59.9723C30.6008 58.915 25.7318 62.0697 24.6745 67.0186C23.6172 71.9675 26.7719 76.8365 31.7208 77.8938C36.6697 78.9512 41.5387 75.7965 42.596 70.8476Z" fill="#FAFAFA"/>
<path d="M75.7389 61.1794C74.4059 59.7505 72.7746 58.6326 70.9609 57.9051C69.1472 57.1776 67.1956 56.8582 65.2446 56.9698V56.9698C65.1896 56.878 65.1482 56.7861 65.0886 56.6989C63.4039 54.0541 60.8397 52.0888 57.8479 51.1494C54.8561 50.2101 51.6287 50.357 48.7346 51.5642C45.8405 52.7715 43.4654 54.9616 42.028 57.7486C40.5906 60.5355 40.1831 63.7404 40.8773 66.7984C40.4672 66.9695 40.0725 67.1753 39.6975 67.4136C38.3592 68.2765 37.31 69.5204 36.6849 70.9849C36.0598 72.4494 35.8875 74.0676 36.1902 75.6309C34.4131 76.25 32.8761 77.4128 31.7969 78.9545C30.6879 80.4843 30.0505 82.305 29.9632 84.1925C29.8759 86.08 30.3426 87.9518 31.3057 89.5774C31.9685 90.6602 32.841 91.5997 33.8719 92.3407C34.9028 93.0816 36.0714 93.6092 37.309 93.8923C38.5466 94.1754 39.8283 94.2084 41.0789 93.9893C42.3294 93.7702 43.5235 93.3034 44.5912 92.6164L60.452 82.3884L74.9585 73.0372C76.5662 72.0165 77.708 70.4046 78.1374 68.5494C78.5669 66.6942 78.2495 64.7445 77.2539 63.1213L77.208 63.057C76.7775 62.387 76.2857 61.7584 75.7389 61.1794Z" fill="#114F8C"/>
<path opacity="0.3" d="M75.7389 61.1794C74.4059 59.7505 72.7746 58.6326 70.9609 57.9051C69.1472 57.1776 67.1956 56.8582 65.2446 56.9698V56.9698C65.1896 56.878 65.1482 56.7861 65.0886 56.6989C63.4039 54.0541 60.8397 52.0888 57.8479 51.1494C54.8561 50.2101 51.6287 50.357 48.7346 51.5642C45.8405 52.7715 43.4654 54.9616 42.028 57.7486C40.5906 60.5355 40.1831 63.7404 40.8773 66.7984C40.4672 66.9695 40.0725 67.1753 39.6975 67.4136C38.3592 68.2765 37.31 69.5204 36.6849 70.9849C36.0598 72.4494 35.8875 74.0676 36.1902 75.6309C34.4131 76.25 32.8761 77.4128 31.7969 78.9545C30.6879 80.4843 30.0505 82.305 29.9632 84.1925C29.8759 86.08 30.3426 87.9518 31.3057 89.5774C31.9685 90.6602 32.841 91.5997 33.8719 92.3407C34.9028 93.0816 36.0714 93.6092 37.309 93.8923C38.5466 94.1754 39.8283 94.2084 41.0789 93.9893C42.3294 93.7702 43.5235 93.3034 44.5912 92.6164L60.452 82.3884L74.9585 73.0372C76.5662 72.0165 77.708 70.4046 78.1374 68.5494C78.5669 66.6942 78.2495 64.7445 77.2539 63.1213L77.208 63.057C76.7775 62.387 76.2857 61.7584 75.7389 61.1794Z" fill="black"/>
<g style="mix-blend-mode:multiply">
<path d="M122.473 28.3881L46.3755 36.7356L54.2765 108.763L130.374 100.415L122.473 28.3881Z" fill="#114F8C"/>
</g>
<path opacity="0.8" d="M122.473 28.3881L46.3755 36.7356L54.2765 108.763L130.374 100.415L122.473 28.3881Z" fill="#FAFAFA"/>
<path d="M121.882 29.1226L45.7842 37.4701L53.6852 109.497L129.783 101.15L121.882 29.1226Z" fill="#FAFAFA"/>
<path d="M117.011 35.3808L51.8926 42.5239L57.3348 92.1362L122.453 84.9931L117.011 35.3808Z" fill="#114F8C"/>
<path opacity="0.8" d="M117.011 35.3808L51.8926 42.5239L57.3348 92.1362L122.453 84.9931L117.011 35.3808Z" fill="#FAFAFA"/>
<path d="M122.261 83.1779L122.458 84.9913L88.634 88.7051L96.709 79.129L104.977 69.3141L122.261 83.1779Z" fill="#114F8C"/>
<path opacity="0.3" d="M122.261 83.1779L122.458 84.9913L88.634 88.7051L96.709 79.129L104.977 69.3141L122.261 83.1779Z" fill="black"/>
<path d="M107.814 86.598L57.344 92.1344L56.9033 88.1451L76.7121 65.6829L96.7091 79.129L107.814 86.598Z" fill="#114F8C"/>
<path opacity="0.3" d="M107.814 86.598L57.344 92.1344L56.9033 88.1451L76.7121 65.6829L96.7091 79.129L107.814 86.598Z" fill="black"/>
<path d="M101.611 53.8122C101.789 49.5337 98.4658 45.9206 94.1873 45.742C89.9088 45.5634 86.2956 48.8871 86.117 53.1656C85.9385 57.4441 89.2621 61.0572 93.5406 61.2358C97.8191 61.4144 101.432 58.0907 101.611 53.8122Z" fill="#114F8C"/>
<path opacity="0.1" d="M101.611 53.8122C101.789 49.5337 98.4658 45.9206 94.1873 45.742C89.9088 45.5634 86.2956 48.8871 86.117 53.1656C85.9385 57.4441 89.2621 61.0572 93.5406 61.2358C97.8191 61.4144 101.432 58.0907 101.611 53.8122Z" fill="#FAFAFA"/>
<g style="mix-blend-mode:multiply" opacity="0.7">
<path d="M84.7136 67.5422C85.0257 65.5682 86.9125 64.1635 89.2675 64.1635H135.776C138.562 64.1635 141.032 66.1145 141.284 68.52L147.519 138.868C147.78 141.273 145.728 143.224 142.928 143.224H26.3247C23.5336 143.224 21.0638 141.273 20.8159 138.868L15.8074 79.7901C15.5458 77.3846 17.5932 75.4382 20.3981 75.4382H74.1091C79.572 75.4382 83.9836 72.165 84.7136 67.5422Z" fill="#114F8C"/>
</g>
<path d="M141.372 43.2528L137.699 44.5107L135.367 46.1541L139.554 47.7792C139.554 47.7792 143.465 47.3661 144.406 45.2452L141.372 43.2528Z" fill="#E4897B"/>
</svg>
