<svg width="227" height="227" viewBox="0 0 227 227" fill="none" xmlns="http://www.w3.org/2000/svg">
<path d="M182.685 46.4034V54.0806H180.047L185.736 60.7044L191.071 54.2168H188.374V46.4034H182.685Z" fill="#114F8C"/>
<path opacity="0.3" d="M182.685 46.4034V54.0806H180.047L185.736 60.7044L191.071 54.2168H188.374V46.4034H182.685Z" fill="black"/>
<path d="M201.226 29.2739C200.52 26.5256 199.061 24.0286 197.014 22.0631C194.967 20.0976 192.413 18.7415 189.638 18.147C186.864 17.5524 183.978 17.7429 181.306 18.6971C178.633 19.6514 176.279 21.3315 174.509 23.549C174.021 23.4888 173.529 23.4585 173.038 23.4582C171.321 23.3786 169.605 23.6482 167.995 24.2504C166.385 24.8527 164.914 25.7752 163.671 26.9622C162.428 28.1492 161.438 29.576 160.762 31.1563C160.086 32.7366 159.737 34.4377 159.737 36.1566C159.737 37.8755 160.086 39.5765 160.762 41.1568C161.438 42.7372 162.428 44.164 163.671 45.351C164.914 46.5379 166.385 47.4605 167.995 48.0627C169.605 48.665 171.321 48.9345 173.038 48.855H200.691C203.246 48.8601 205.702 47.8666 207.536 46.0864C209.369 44.3061 210.434 41.8801 210.504 39.3256C210.574 36.7711 209.643 34.2905 207.91 32.4127C206.177 30.5348 203.778 29.4085 201.226 29.2739Z" fill="#114F8C"/>
<path d="M204.15 45.4318C204.127 45.3954 204.677 45.0549 205.403 44.324C206.356 43.3777 207.088 42.2316 207.545 40.9684C208.002 39.7052 208.173 38.3564 208.045 37.0191C207.95 35.9931 207.75 35.3757 207.791 35.3666C207.866 35.4987 207.921 35.6409 207.955 35.7888C208.072 36.1856 208.158 36.5909 208.213 37.001C208.391 38.3661 208.239 39.7539 207.771 41.0484C207.303 42.3429 206.531 43.5066 205.521 44.442C205.22 44.7264 204.895 44.9846 204.55 45.2138C204.429 45.3078 204.294 45.3814 204.15 45.4318Z" fill="#263238"/>
<path d="M174.863 27.2628C174.863 27.3036 174.159 27.1266 173.024 27.1039C171.543 27.0642 170.072 27.3511 168.714 27.9443C167.357 28.5375 166.147 29.4224 165.17 30.5361C164.416 31.3896 164.08 32.0207 164.039 31.9934C164.092 31.8325 164.167 31.6797 164.262 31.5394C164.493 31.1461 164.754 30.7712 165.043 30.4181C166.006 29.2494 167.231 28.3243 168.618 27.7177C170.006 27.1111 171.517 26.8401 173.029 26.9268C173.487 26.9508 173.942 27.0116 174.391 27.1084C174.554 27.1393 174.713 27.1912 174.863 27.2628Z" fill="#263238"/>
<path d="M183.439 20.9884C183.439 21.0338 182.935 21.0656 182.154 21.2699C181.135 21.5494 180.176 22.0109 179.321 22.6319C178.471 23.2511 177.742 24.0204 177.169 24.9019C176.715 25.5784 176.543 26.0505 176.502 26.0369C176.517 25.9174 176.551 25.801 176.602 25.6919C176.715 25.3861 176.857 25.0913 177.024 24.8111C177.267 24.3842 177.549 23.9814 177.868 23.608C178.265 23.1645 178.706 22.7629 179.185 22.4095C179.667 22.063 180.185 21.7678 180.728 21.5287C181.175 21.3347 181.638 21.1827 182.113 21.0747C182.431 21.0051 182.755 20.9626 183.08 20.9476C183.201 20.9424 183.322 20.9562 183.439 20.9884Z" fill="#263238"/>
<path d="M195.329 48.7461C195.329 48.8142 191.597 48.8641 186.994 48.8641C182.39 48.8641 178.654 48.8142 178.654 48.7461C178.654 48.678 182.385 48.6281 186.994 48.6281C191.602 48.6281 195.329 48.6825 195.329 48.7461Z" fill="#263238"/>
<path d="M196.264 71.623C196.201 71.623 196.146 68.5631 196.146 64.813C196.146 61.063 196.201 58.0031 196.264 58.0031C196.328 58.0031 196.387 61.0585 196.387 64.813C196.387 68.5676 196.332 71.623 196.264 71.623Z" fill="#263238"/>
<path d="M198.934 77.5887C198.87 77.5887 198.816 73.6525 198.816 68.7947C198.816 63.9369 198.87 60.0007 198.934 60.0007C198.997 60.0007 199.056 63.9369 199.056 68.7947C199.056 73.6525 199.002 77.5887 198.934 77.5887Z" fill="#263238"/>
<path d="M28.2432 85.3929V90.0964H26.627L30.1091 94.1551L33.3779 90.1826H31.7254V85.3929H28.2432Z" fill="#114F8C"/>
<path opacity="0.3" d="M28.2432 85.3929V90.0964H26.627L30.1091 94.1551L33.3779 90.1826H31.7254V85.3929H28.2432Z" fill="black"/>
<path d="M39.6023 74.91C39.1689 73.2263 38.2751 71.6965 37.0209 70.4924C35.7667 69.2883 34.2018 68.4574 32.5018 68.093C30.8018 67.7286 29.0339 67.845 27.3963 68.4292C25.7588 69.0135 24.3164 70.0424 23.231 71.4006C22.9296 71.366 22.6264 71.3478 22.323 71.3461C21.2856 71.3211 20.2537 71.5038 19.2879 71.8834C18.3222 72.2631 17.4421 72.8321 16.6995 73.557C15.957 74.2818 15.3669 75.1479 14.964 76.1042C14.5611 77.0605 14.3535 78.0877 14.3535 79.1254C14.3535 80.1631 14.5611 81.1904 14.964 82.1467C15.3669 83.103 15.957 83.969 16.6995 84.6939C17.4421 85.4187 18.3222 85.9877 19.2879 86.3674C20.2537 86.7471 21.2856 86.9298 22.323 86.9047H39.2708C40.8342 86.9051 42.336 86.2955 43.4567 85.2055C44.5774 84.1156 45.2287 82.6314 45.2718 81.0686C45.315 79.5059 44.7467 77.988 43.6879 76.8378C42.6291 75.6876 41.1632 74.996 39.6023 74.91Z" fill="#114F8C"/>
<path d="M41.3911 84.7981C41.3911 84.7664 41.6998 84.5484 42.1357 84.099C42.7061 83.515 43.147 82.8173 43.4296 82.0514C43.7004 81.2815 43.8087 80.4637 43.7474 79.6498C43.6974 79.0233 43.5839 78.6419 43.6203 78.6328C43.7867 78.9414 43.8857 79.2819 43.9108 79.6316C44.0294 80.4731 43.9403 81.3308 43.6515 82.13C43.3627 82.9292 42.8828 83.6457 42.2537 84.217C42.0102 84.4692 41.7163 84.6672 41.3911 84.7981Z" fill="#263238"/>
<path d="M23.4491 73.666C23.4491 73.7069 22.9951 73.6116 22.3186 73.6025C21.4173 73.5857 20.523 73.764 19.697 74.1253C18.871 74.4866 18.133 75.0222 17.5335 75.6954C17.0795 76.2084 16.8525 76.6034 16.8207 76.5671C16.9483 76.2043 17.1475 75.8709 17.4063 75.5865C17.9945 74.86 18.7485 74.2854 19.6049 73.9109C20.4612 73.5365 21.395 73.3731 22.3277 73.4345C22.7131 73.4373 23.0941 73.5159 23.4491 73.666Z" fill="#263238"/>
<path d="M28.7018 69.8253C28.4458 69.9087 28.185 69.9769 27.9209 70.0296C27.3061 70.204 26.7267 70.4852 26.2093 70.8604C25.6943 71.2354 25.2474 71.6961 24.8882 72.2224C24.7524 72.4594 24.6007 72.6869 24.4342 72.9034C24.4736 72.6287 24.5744 72.3664 24.7293 72.1361C25.0573 71.5542 25.5081 71.0507 26.0504 70.6606C26.5908 70.2651 27.2103 69.991 27.8664 69.8571C28.1386 69.7816 28.4247 69.7708 28.7018 69.8253Z" fill="#263238"/>
<path d="M35.9885 86.8321C35.9885 86.8957 33.7185 86.9502 30.881 86.9502C28.0435 86.9502 25.7689 86.8957 25.7689 86.8321C25.7689 86.7686 28.0571 86.7141 30.8719 86.7141C33.6867 86.7141 35.9885 86.764 35.9885 86.8321Z" fill="#263238"/>
<path d="M36.5607 100.842C36.4438 99.4519 36.4044 98.056 36.4427 96.6611C36.4043 95.2647 36.4437 93.8672 36.5607 92.4752C36.6805 93.8671 36.7199 95.2647 36.6788 96.6611C36.7198 98.056 36.6804 99.4521 36.5607 100.842Z" fill="#263238"/>
<path d="M38.1949 104.502C38.1314 104.502 38.0769 102.086 38.0769 99.1127C38.0769 96.139 38.1314 93.7238 38.1949 93.7238C38.2585 93.7238 38.313 96.139 38.313 99.1127C38.313 102.086 38.263 104.502 38.1949 104.502Z" fill="#263238"/>
<path d="M110.449 164.67V186.676H102.89L119.184 205.653L134.47 187.062H126.743V164.67H110.449Z" fill="#114F8C"/>
<path opacity="0.3" d="M110.449 164.67V186.676H102.89L119.184 205.653L134.47 187.062H126.743V164.67H110.449Z" fill="black"/>
<path d="M163.585 115.579C161.558 107.704 157.377 100.55 151.51 94.9187C145.644 89.2873 138.325 85.4016 130.374 83.6974C122.423 81.9932 114.154 82.5379 106.495 85.2703C98.8366 88.0028 92.0904 92.8149 87.0136 99.1671C85.6154 98.9989 84.2088 98.911 82.8005 98.9038C73.1474 98.9038 63.8896 102.739 57.0638 109.564C50.238 116.39 46.4033 125.648 46.4033 135.301C46.4033 144.954 50.238 154.212 57.0638 161.038C63.8896 167.863 73.1474 171.698 82.8005 171.698H162.051C169.369 171.703 176.399 168.852 181.646 163.75C186.893 158.649 189.941 151.701 190.141 144.386C190.341 137.071 187.677 129.966 182.717 124.586C177.757 119.205 170.892 115.974 163.585 115.579Z" fill="#114F8C"/>
<path d="M91.7762 122.203C91.7517 122.125 91.7395 122.044 91.7398 121.963C91.7398 121.781 91.7126 121.554 91.6944 121.277C91.6944 121.123 91.6944 120.959 91.6672 120.778C91.64 120.596 91.6218 120.401 91.5991 120.192C91.5401 119.77 91.5038 119.284 91.3857 118.766C91.3358 118.503 91.2813 118.226 91.2223 117.94C91.1633 117.654 91.0725 117.368 90.9953 117.064C90.8545 116.451 90.6185 115.82 90.3915 115.153C89.8459 113.729 89.1664 112.361 88.3621 111.067C87.5315 109.78 86.5814 108.575 85.5246 107.466C85.0206 106.976 84.5485 106.495 84.0582 106.104C83.8175 105.905 83.6042 105.7 83.3635 105.523L82.6871 105.024C82.2694 104.692 81.8472 104.452 81.4931 104.22L80.9937 103.902L80.5397 103.666L79.9404 103.326C79.866 103.293 79.7971 103.248 79.7361 103.194C79.8129 103.218 79.8874 103.248 79.9585 103.285L80.5851 103.585L81.0391 103.807C81.198 103.893 81.3659 103.998 81.5521 104.107C81.9743 104.345 82.3835 104.606 82.7779 104.888L83.4634 105.378C83.704 105.55 83.9174 105.759 84.1762 105.955C84.6976 106.382 85.1962 106.837 85.6699 107.317C87.8539 109.525 89.5316 112.181 90.5867 115.103C90.8172 115.737 91.0142 116.382 91.1769 117.037C91.2495 117.345 91.3403 117.636 91.3948 117.945C91.4493 118.253 91.4947 118.512 91.5401 118.775C91.6255 119.253 91.6861 119.735 91.7217 120.219C91.7217 120.433 91.7625 120.628 91.7716 120.814C91.7807 121 91.7716 121.159 91.7716 121.313V122.003C91.7772 122.07 91.7787 122.137 91.7762 122.203Z" fill="#263238"/>
<path d="M76.8849 115.166C76.8531 115.198 76.3764 114.712 75.5229 114.081C73.2605 112.401 70.5727 111.388 67.764 111.157C66.688 111.067 66.0161 111.107 66.0161 111.067C66.1635 111.023 66.3165 111.002 66.4701 111.003C66.8994 110.974 67.3302 110.974 67.7595 111.003C70.6223 111.138 73.3701 112.171 75.6137 113.954C75.9524 114.219 76.2725 114.507 76.5716 114.817C76.6892 114.921 76.7943 115.038 76.8849 115.166Z" fill="#263238"/>
<path d="M93.5557 146.233C93.3172 146.258 93.0769 146.258 92.8384 146.233C92.3844 146.233 91.7034 146.233 90.8771 146.193C89.2246 146.134 86.9409 145.997 84.4258 145.739C81.9106 145.48 79.6452 145.18 78.0108 144.912C77.1936 144.781 76.5353 144.667 76.0813 144.576C75.8425 144.542 75.607 144.487 75.3776 144.413C75.6181 144.42 75.8578 144.444 76.0949 144.485L78.038 144.749C79.6724 144.971 81.9379 145.257 84.4485 145.502C86.9591 145.748 89.2382 145.911 90.8862 146.011L92.8384 146.129C93.0797 146.147 93.3194 146.182 93.5557 146.233Z" fill="#263238"/>
<path d="M162.396 115.357C162.312 115.376 162.227 115.386 162.142 115.389L161.411 115.439C161.097 115.439 160.707 115.475 160.262 115.534C159.817 115.593 159.3 115.62 158.741 115.72L157.86 115.861C157.556 115.911 157.243 115.988 156.916 116.051C156.262 116.174 155.577 116.369 154.85 116.56C151.718 117.451 148.749 118.838 146.056 120.669C145.444 121.1 144.853 121.499 144.34 121.926C144.077 122.135 143.818 122.326 143.587 122.525L142.915 123.111C142.461 123.474 142.12 123.847 141.793 124.155C141.467 124.464 141.199 124.746 140.981 124.982L140.477 125.508C140.42 125.573 140.356 125.631 140.286 125.681C140.33 125.607 140.382 125.539 140.44 125.476C140.563 125.327 140.722 125.145 140.894 124.918C141.067 124.691 141.348 124.382 141.684 124.064C142.02 123.747 142.352 123.361 142.783 122.989L143.451 122.389C143.682 122.18 143.941 121.985 144.2 121.772C144.713 121.318 145.303 120.927 145.916 120.487C148.629 118.62 151.637 117.221 154.814 116.351C155.545 116.165 156.24 115.974 156.898 115.861C157.229 115.797 157.547 115.725 157.856 115.679L158.764 115.557C159.327 115.466 159.844 115.443 160.294 115.402C160.68 115.364 161.068 115.346 161.456 115.348H162.187C162.257 115.343 162.327 115.346 162.396 115.357Z" fill="#263238"/>
<path d="M160.153 171.943C160.153 172.012 142.606 172.062 120.968 172.062C99.3306 172.062 81.7789 172.012 81.7789 171.943C81.7789 171.875 99.3215 171.825 120.968 171.825C142.615 171.825 160.153 171.88 160.153 171.943Z" fill="#263238"/>
<path d="M65.5166 187.693C65.453 187.693 65.3986 184.41 65.3986 180.365C65.3986 176.32 65.453 173.033 65.5166 173.033C65.5802 173.033 65.6346 176.311 65.6346 180.365C65.6346 184.419 65.5802 187.693 65.5166 187.693Z" fill="#263238"/>
<path d="M68.4949 201.213C68.4313 201.213 68.3768 196.596 68.3768 190.902C68.3768 185.209 68.4313 180.592 68.4949 180.592C68.5584 180.592 68.6129 185.205 68.6129 190.902C68.6129 196.6 68.5539 201.213 68.4949 201.213Z" fill="#263238"/>
<g opacity="0.3">
<path opacity="0.3" d="M173.637 130.162C172.729 124.982 165.86 119.72 159.94 120.905C154.782 121.931 149.23 123.129 144.131 124.419C142.025 124.95 139.845 122.394 138.084 121.127C137.176 120.464 136.613 119.402 136.036 118.403C132.754 112.823 127.351 108.638 121.318 106.299C115.284 103.961 108.647 103.403 102.213 104.107C97.2194 104.656 91.7714 106.377 89.4333 110.826C88.4981 112.619 88.1258 114.771 86.6775 116.179C84.7435 118.049 81.6835 117.899 79.1638 118.848C74.1244 120.746 71.573 127.951 72.2086 133.294C72.8442 138.638 77.5975 145.525 87.5901 146.624C87.5901 146.624 123.788 146.942 141.661 147.809C147.859 148.108 149.729 147.255 155.926 147.091C166.863 146.828 175.271 139.664 173.637 130.162Z" fill="black"/>
</g>
<path d="M107.144 156.199C107.752 156.044 108.433 155.418 108.96 155.082C110.249 154.253 111.525 153.401 112.787 152.526C108.247 151.209 104.411 150.17 99.8801 148.894C99.7245 150.71 99.8937 152.539 100.38 154.296C100.797 155.699 101.596 157.193 103.013 157.565C104.298 157.901 105.605 157.193 106.74 156.494L107.053 156.299" fill="#E0E0E0"/>
<path d="M107.92 153.693C107.852 153.693 107.88 153.098 107.721 152.403C107.562 151.709 107.267 151.191 107.348 151.155C107.645 151.498 107.852 151.909 107.952 152.352C108.052 152.795 108.041 153.255 107.92 153.693Z" fill="#263238"/>
<path d="M108.896 153.452C108.85 153.115 108.825 152.775 108.824 152.435C108.753 152.103 108.706 151.766 108.683 151.427C108.892 151.717 109.022 152.056 109.06 152.411C109.097 152.766 109.041 153.125 108.896 153.452Z" fill="#263238"/>
<path d="M102.913 149.738C102.954 149.738 102.822 150.192 102.813 150.969C102.798 151.955 103.044 152.927 103.526 153.788C103.986 154.66 104.616 155.432 105.378 156.058C105.719 156.285 106.079 156.481 106.454 156.644C106.339 156.65 106.225 156.631 106.118 156.589C105.821 156.5 105.539 156.367 105.283 156.194C104.464 155.587 103.792 154.803 103.317 153.901C102.815 153.006 102.584 151.984 102.649 150.96C102.664 150.653 102.711 150.348 102.79 150.052C102.81 149.94 102.852 149.834 102.913 149.738Z" fill="#9DB6CE"/>
<path d="M106.454 150.787C106.851 151.626 107.1 152.528 107.189 153.452C107.35 154.362 107.35 155.293 107.189 156.203C107.117 156.203 107.167 154.973 106.962 153.479C106.758 151.986 106.381 150.81 106.454 150.787Z" fill="#9DB6CE"/>
<path d="M105.428 155.618C105.158 155.464 104.914 155.267 104.706 155.037C104.152 154.527 103.691 153.924 103.344 153.257C102.997 152.58 102.853 151.816 102.931 151.059C102.944 150.743 103.048 150.437 103.23 150.179C103.267 150.179 103.131 150.519 103.099 151.087C103.072 151.807 103.228 152.522 103.553 153.166C103.892 153.81 104.316 154.406 104.815 154.937C105.041 155.143 105.246 155.371 105.428 155.618Z" fill="#114F8C"/>
<path d="M111.775 153.157C111.285 153.553 110.749 153.887 110.177 154.151C109.642 154.482 109.068 154.748 108.47 154.941C108.957 154.54 109.494 154.204 110.068 153.942C110.602 153.611 111.175 153.347 111.775 153.157Z" fill="#114F8C"/>
<path d="M104.547 155.681C104.171 156.091 103.696 156.399 103.168 156.575C102.64 156.752 102.075 156.791 101.528 156.689C101.528 156.621 102.259 156.634 103.094 156.348C103.93 156.062 104.506 155.627 104.547 155.681Z" fill="#9DB6CE"/>
<path d="M103.008 153.357C103.008 153.425 102.395 153.511 101.714 153.811C101.033 154.11 100.556 154.528 100.506 154.478C100.77 154.072 101.159 153.763 101.614 153.597C102.039 153.364 102.53 153.279 103.008 153.357Z" fill="#9DB6CE"/>
<path d="M102.708 151.291C102.219 151.122 101.72 150.983 101.215 150.873C100.697 150.846 100.179 150.846 99.662 150.873C100.148 150.616 100.709 150.537 101.246 150.651C101.795 150.68 102.315 150.908 102.708 151.291Z" fill="#9DB6CE"/>
<path d="M137.467 144.726C137.494 144.767 120.437 148.88 120.437 148.88L117.931 143.01L119.08 141.235C119.08 141.235 126.289 139.605 132.155 136.286L137.467 144.726Z" fill="#FFBE9D"/>
<path d="M97.442 128.001C97.442 128.001 96.6611 126.861 93.356 125.24C90.6093 123.878 83.5586 122.771 80.703 128.287C77.8473 133.803 80.0401 142.265 84.789 144.072C89.5378 145.879 97.442 148.354 100.679 149.398C103.916 150.442 114.562 153.107 114.562 153.107L118.939 150.542L119.456 142.37C119.456 142.37 113.423 136.173 108.288 134.461C103.153 132.75 97.442 128.001 97.442 128.001Z" fill="#263238"/>
<path d="M87.5902 124.151C87.6356 124.083 92.4299 124.219 95.9302 125.54C97.2468 126.035 98.5361 126.566 98.5361 126.566L100.47 121.055L114.966 116.224H131.015L136.236 126.566V127.088C136.236 127.088 142.506 127.193 145.221 125.94C147.936 124.687 156.394 121.027 158.587 120.296C160.78 119.565 170.6 118.163 172.792 124.137C174.985 130.112 173.433 136.345 169.764 138.624C168.034 139.696 138.851 147.25 138.851 147.25L131.955 136.282C131.955 136.282 121.45 141.489 117.931 140.922C114.413 140.354 87.5902 124.151 87.5902 124.151Z" fill="#263238"/>
<path d="M117.191 118.889C117.222 118.958 117.246 119.029 117.264 119.102C117.304 119.266 117.359 119.47 117.423 119.715C117.554 120.251 117.722 121.036 117.877 122.008C118.231 123.951 118.585 126.662 118.857 129.662C119.13 132.663 119.275 135.387 119.334 137.38C119.366 138.366 119.375 139.165 119.375 139.719C119.375 139.973 119.375 140.173 119.375 140.354C119.387 140.428 119.387 140.503 119.375 140.577C119.36 140.503 119.351 140.429 119.347 140.354C119.347 140.182 119.347 139.973 119.316 139.719C119.284 139.133 119.248 138.357 119.198 137.39C119.098 135.419 118.921 132.7 118.653 129.699C118.385 126.698 118.054 124.001 117.745 122.053C117.595 121.082 117.45 120.296 117.345 119.756C117.3 119.506 117.259 119.302 117.227 119.13C117.202 119.052 117.19 118.971 117.191 118.889Z" fill="#9DB6CE"/>
<path d="M136.077 127.342C136.077 127.406 132.445 127.865 127.946 128.364C123.447 128.863 119.801 129.217 119.774 129.149C119.747 129.081 123.406 128.627 127.905 128.128C132.404 127.628 136.068 127.279 136.077 127.342Z" fill="#9DB6CE"/>
<path d="M133.68 127.365C133.507 127.373 133.333 127.359 133.163 127.324C132.831 127.279 132.355 127.22 131.76 127.161C130.218 126.993 128.667 126.922 127.116 126.947C125.566 126.977 124.019 127.102 122.485 127.32L121.091 127.533C120.921 127.572 120.748 127.593 120.573 127.597C120.733 127.525 120.901 127.475 121.073 127.447C121.395 127.361 121.867 127.261 122.458 127.156C125.539 126.618 128.685 126.563 131.783 126.993C132.373 127.079 132.85 127.161 133.177 127.233C133.348 127.26 133.517 127.305 133.68 127.365Z" fill="#9DB6CE"/>
<path d="M135.9 126.739C134.905 126.25 133.863 125.864 132.79 125.585C131.699 125.385 130.59 125.299 129.481 125.327C129.795 125.217 130.125 125.162 130.457 125.163C132.064 125.071 133.665 125.424 135.083 126.185C135.383 126.325 135.659 126.512 135.9 126.739Z" fill="#9DB6CE"/>
<path d="M122.535 135.714C122.122 136.128 121.618 136.439 121.064 136.622C120.539 136.875 119.961 136.998 119.379 136.981C119.379 136.913 120.11 136.749 120.973 136.4C121.835 136.05 122.494 135.66 122.535 135.714Z" fill="#9DB6CE"/>
<path d="M121.763 137.748C121.011 138.151 120.142 138.276 119.307 138.102C119.707 137.991 120.118 137.926 120.532 137.907C120.936 137.81 121.348 137.757 121.763 137.748Z" fill="#9DB6CE"/>
<path d="M146.429 126.339C146.362 126.395 146.291 126.443 146.215 126.484L145.584 126.861L143.232 128.223L135.433 132.609L127.597 136.935L125.209 138.225L124.55 138.565C124.475 138.607 124.396 138.642 124.314 138.67C124.38 138.613 124.451 138.565 124.528 138.524L125.163 138.143L127.515 136.781L135.315 132.395L143.151 128.069L145.539 126.784L146.192 126.444C146.265 126.397 146.345 126.362 146.429 126.339Z" fill="#9DB6CE"/>
<path d="M158.673 124.028C158.577 124.06 158.478 124.084 158.378 124.101L157.533 124.273C156.798 124.428 155.74 124.673 154.451 125.036C151.098 126.012 147.845 127.303 144.735 128.891C141.076 130.707 137.925 132.659 135.619 134.053L132.895 135.714L132.15 136.168C132.065 136.222 131.975 136.269 131.882 136.309C131.958 136.24 132.04 136.179 132.128 136.127L132.845 135.646C133.471 135.233 134.379 134.638 135.514 133.921C137.784 132.486 140.962 130.53 144.617 128.686C147.738 127.091 151.013 125.816 154.392 124.882C155.695 124.537 156.762 124.319 157.502 124.196C157.869 124.124 158.16 124.092 158.355 124.065C158.459 124.039 158.566 124.027 158.673 124.028Z" fill="#9DB6CE"/>
<path d="M165.86 121.963C165.86 122.003 165.333 121.963 164.498 121.963C163.397 121.995 162.304 122.16 161.243 122.453C160.183 122.749 159.162 123.17 158.201 123.706C157.461 124.124 157.034 124.432 157.012 124.401C156.989 124.369 157.098 124.296 157.284 124.146C157.548 123.935 157.826 123.741 158.115 123.565C159.067 122.974 160.099 122.523 161.179 122.226C162.258 121.927 163.374 121.782 164.493 121.795C164.832 121.798 165.17 121.822 165.506 121.867C165.628 121.882 165.747 121.914 165.86 121.963Z" fill="#9DB6CE"/>
<path d="M163.336 123.883C163.336 123.951 162.119 123.792 160.612 123.847C159.104 123.901 157.933 124.137 157.919 124.069C158.78 123.76 159.688 123.606 160.602 123.615C161.522 123.542 162.448 123.633 163.336 123.883Z" fill="#9DB6CE"/>
<path d="M158.069 122.031C158.101 122.094 157.057 122.648 155.894 123.515C154.732 124.382 153.892 125.218 153.842 125.168C154.366 124.446 155.013 123.822 155.754 123.325C156.445 122.763 157.228 122.325 158.069 122.031Z" fill="#9DB6CE"/>
<path d="M173.428 127.211C173.413 127.243 173.396 127.275 173.378 127.306L173.228 127.574C173.087 127.815 172.879 128.155 172.574 128.577C171.722 129.785 170.692 130.857 169.519 131.755C167.771 133.062 165.883 134.169 163.889 135.056C161.656 136.086 159.109 136.994 156.439 137.93L142.756 142.719L138.597 144.14L137.467 144.517L137.167 144.613C137.134 144.626 137.098 144.633 137.062 144.635L137.158 144.59L137.448 144.472L138.57 144.054L142.701 142.561L156.362 137.707C159.032 136.772 161.574 135.891 163.803 134.856C165.786 133.984 167.669 132.9 169.419 131.624C170.594 130.743 171.638 129.701 172.52 128.527C172.829 128.114 173.056 127.778 173.205 127.551L173.378 127.293C173.411 127.235 173.428 127.208 173.428 127.211Z" fill="#9DB6CE"/>
<path d="M118.453 150.832C118.34 150.8 118.23 150.761 118.122 150.714L117.186 150.338C116.378 150.006 115.211 149.511 113.781 148.88C110.917 147.623 106.971 145.825 102.704 143.732C98.4362 141.639 94.5908 139.646 91.8804 138.057C90.5184 137.276 89.447 136.613 88.7024 136.136L87.8625 135.578C87.7619 135.518 87.6676 135.448 87.5811 135.369C87.6883 135.417 87.7916 135.473 87.8898 135.537L88.7478 136.059C89.4969 136.513 90.5865 137.153 91.9531 137.907C94.6771 139.437 98.5179 141.416 102.799 143.518C107.08 145.62 110.998 147.432 113.84 148.726L117.223 150.274L118.131 150.687C118.243 150.724 118.351 150.773 118.453 150.832Z" fill="#9DB6CE"/>
<path d="M88.7161 127.016C88.8369 126.909 88.9731 126.822 89.1201 126.757C89.5025 126.554 89.9002 126.381 90.3096 126.239C91.6735 125.768 93.1265 125.613 94.559 125.785C95.99 125.922 97.384 126.319 98.6723 126.957C99.0568 127.159 99.4163 127.406 99.7437 127.692C99.8705 127.788 99.9823 127.903 100.075 128.033C99.6024 127.691 99.108 127.38 98.5951 127.102C97.3017 126.52 95.9212 126.155 94.5091 126.021C93.1112 125.851 91.6931 125.974 90.3459 126.385C89.3244 126.716 88.7342 127.056 88.7161 127.016Z" fill="#9DB6CE"/>
<path d="M119.452 142.374C119.373 142.331 119.301 142.276 119.239 142.211L118.658 141.716C118.154 141.262 117.409 140.672 116.483 139.927C114.631 138.443 112.016 136.454 109.133 134.252L107.035 132.641C106.35 132.132 105.673 131.696 104.983 131.279C103.621 130.475 102.395 129.789 101.41 129.113C100.622 128.594 99.8873 127.998 99.2173 127.333C99.035 127.155 98.8623 126.967 98.6997 126.77C98.6363 126.707 98.5814 126.635 98.5363 126.557C98.5363 126.557 98.795 126.82 99.2808 127.27C99.9695 127.901 100.712 128.471 101.501 128.972C102.491 129.626 103.739 130.293 105.097 131.092C105.773 131.497 106.459 131.932 107.171 132.454C107.884 132.977 108.533 133.517 109.273 134.066C112.156 136.268 114.758 138.275 116.587 139.8C117.495 140.558 118.235 141.189 118.717 141.643C118.966 141.87 119.148 142.052 119.27 142.179C119.337 142.238 119.398 142.304 119.452 142.374Z" fill="#9DB6CE"/>
<path d="M107.48 131.056C108.03 131.227 108.569 131.428 109.096 131.66C110.091 132.046 111.466 132.568 113.014 133.045C114.562 133.521 115.979 133.912 117.01 134.166C117.574 134.288 118.132 134.44 118.68 134.62C118.528 134.627 118.375 134.611 118.226 134.575C117.931 134.534 117.504 134.457 116.982 134.348C115.621 134.063 114.275 133.709 112.951 133.285C111.624 132.867 110.319 132.383 109.042 131.832C108.556 131.619 108.161 131.438 107.893 131.306C107.746 131.239 107.608 131.155 107.48 131.056Z" fill="#9DB6CE"/>
<path d="M112.501 127.034C111.964 127.16 111.42 127.254 110.871 127.315C109.863 127.465 108.47 127.678 106.94 127.951C105.41 128.223 104.029 128.509 103.031 128.718C102.496 128.853 101.953 128.953 101.405 129.018C101.537 128.95 101.678 128.9 101.823 128.868C102.095 128.786 102.495 128.677 102.99 128.555C103.984 128.305 105.36 127.996 106.899 127.719C108.438 127.442 109.832 127.265 110.848 127.147C111.357 127.093 111.756 127.056 112.056 127.038C112.203 127.015 112.353 127.013 112.501 127.034Z" fill="#9DB6CE"/>
<path d="M110.349 124.369C110.349 124.405 109.723 124.46 108.724 124.609C106.11 124.995 103.571 125.782 101.197 126.943C100.289 127.397 99.7392 127.701 99.7211 127.665C99.8279 127.562 99.9486 127.475 100.08 127.406C100.316 127.247 100.67 127.038 101.119 126.793C102.295 126.166 103.528 125.652 104.801 125.259C106.073 124.866 107.379 124.592 108.701 124.441C109.21 124.387 109.609 124.36 109.904 124.355C110.052 124.336 110.203 124.341 110.349 124.369Z" fill="#9DB6CE"/>
<path d="M128.591 147.291L125.867 153.647C126.87 154.555 130.684 155.136 132.028 155.068C133.371 155 135.315 155.014 136.654 154.864C138.36 154.726 140.075 154.738 141.78 154.9C143.485 155.062 145.203 155.03 146.901 154.805C148.603 154.571 150.19 153.813 151.441 152.635C152.045 152.101 152.503 151.42 152.769 150.658C153.034 149.896 153.1 149.079 152.959 148.285C152.819 147.49 152.476 146.745 151.964 146.121C151.453 145.497 150.789 145.015 150.038 144.722C148.669 144.139 147.168 143.934 145.693 144.127C144.225 144.32 142.778 144.649 141.371 145.108C139.859 145.562 138.311 146.016 136.74 145.879C136.422 145.852 136.105 145.879 135.791 145.807C133.739 145.425 131.601 145.407 129.753 146.569C129.39 146.801 128.977 147.005 128.591 147.291Z" fill="#E0E0E0"/>
<path d="M128.986 148.004C129.059 147.921 129.139 147.845 129.227 147.777C129.471 147.575 129.732 147.394 130.007 147.237C131.032 146.648 132.214 146.392 133.39 146.506C134.125 146.579 134.915 146.728 135.769 146.855C136.667 147.016 137.583 147.06 138.493 146.987C139.492 146.853 140.477 146.626 141.435 146.311C142.478 145.965 143.556 145.737 144.649 145.63C145.75 145.523 146.86 145.619 147.927 145.911C148.433 146.057 148.923 146.255 149.389 146.501C149.841 146.731 150.25 147.038 150.596 147.409C151.234 148.103 151.683 148.949 151.899 149.865C152.005 150.283 152.019 150.718 151.94 151.141C151.854 151.53 151.701 151.9 151.486 152.235C151.127 152.805 150.645 153.286 150.074 153.643C149.65 153.913 149.202 154.142 148.735 154.328C148.354 154.487 148.054 154.592 147.85 154.664C147.748 154.707 147.641 154.737 147.532 154.755C147.628 154.701 147.728 154.656 147.832 154.619C148.031 154.533 148.326 154.415 148.699 154.247C149.151 154.044 149.587 153.806 150.002 153.534C150.546 153.178 151.003 152.705 151.341 152.149C151.549 151.819 151.688 151.45 151.748 151.064C151.808 150.678 151.788 150.284 151.691 149.906C151.471 149.029 151.034 148.222 150.419 147.559C149.706 146.857 148.817 146.36 147.845 146.12C146.81 145.841 145.734 145.748 144.667 145.848C142.452 146.011 140.486 147.023 138.515 147.21C137.59 147.278 136.659 147.226 135.746 147.055C134.893 146.914 134.107 146.756 133.381 146.674C132.234 146.555 131.077 146.78 130.057 147.319C129.688 147.528 129.331 147.757 128.986 148.004Z" fill="#9DB6CE"/>
<path d="M147.55 154.782C147.55 154.782 147.45 154.696 147.305 154.505C147.213 154.393 147.13 154.275 147.055 154.151C146.949 153.991 146.854 153.824 146.769 153.652C146.538 153.209 146.348 152.745 146.202 152.267C146.024 151.674 145.903 151.066 145.838 150.451C145.784 149.839 145.784 149.224 145.838 148.612C145.886 148.115 145.979 147.622 146.115 147.141C146.164 146.955 146.225 146.771 146.297 146.592C146.344 146.455 146.4 146.322 146.465 146.193C146.574 145.979 146.637 145.866 146.651 145.875C146.665 145.884 146.469 146.365 146.279 147.182C146.165 147.658 146.09 148.142 146.056 148.631C146.021 149.228 146.03 149.828 146.084 150.424C146.152 151.019 146.266 151.608 146.424 152.185C146.557 152.652 146.727 153.107 146.933 153.547C147.264 154.36 147.577 154.76 147.55 154.782Z" fill="#263238"/>
<path d="M130.266 146.401C130.325 146.433 130.266 146.669 130.135 146.942C130.003 147.214 129.898 147.432 129.835 147.396C129.771 147.359 129.799 147.123 129.917 146.837C130.035 146.551 130.212 146.37 130.266 146.401Z" fill="#9DB6CE"/>
<path d="M132.205 145.648C132.264 145.675 132.205 145.906 132.128 146.179C132.05 146.451 131.937 146.669 131.873 146.633C131.81 146.597 131.81 146.37 131.901 146.083C131.991 145.797 132.146 145.62 132.205 145.648Z" fill="#9DB6CE"/>
<path d="M134.697 145.598C134.756 145.62 134.724 145.888 134.625 146.197C134.525 146.506 134.388 146.742 134.329 146.719C134.27 146.696 134.298 146.433 134.398 146.124C134.497 145.816 134.634 145.58 134.697 145.598Z" fill="#9DB6CE"/>
<path d="M137.036 145.893C137.099 145.893 137.076 146.179 136.986 146.492C136.895 146.805 136.768 147.046 136.709 147.028C136.65 147.01 136.668 146.742 136.759 146.424C136.849 146.106 136.972 145.875 137.036 145.893Z" fill="#9DB6CE"/>
<path d="M139.006 147.128C138.942 147.128 138.888 146.81 138.892 146.42C138.897 146.029 138.947 145.716 139.015 145.716C139.083 145.716 139.128 146.034 139.128 146.42C139.128 146.805 139.069 147.128 139.006 147.128Z" fill="#9DB6CE"/>
<path d="M141.194 146.569C141.126 146.569 141.035 146.297 140.985 145.943C140.935 145.589 140.949 145.294 141.012 145.285C141.076 145.275 141.171 145.557 141.221 145.911C141.271 146.265 141.267 146.56 141.194 146.569Z" fill="#9DB6CE"/>
<path d="M143.219 144.585C143.282 144.585 143.387 144.84 143.45 145.18C143.514 145.521 143.514 145.807 143.45 145.816C143.387 145.825 143.282 145.561 143.219 145.221C143.155 144.88 143.155 144.594 143.219 144.585Z" fill="#9DB6CE"/>
<path d="M145.834 144.104C145.897 144.104 145.87 144.49 145.779 144.935C145.689 145.38 145.552 145.734 145.489 145.72C145.425 145.707 145.453 145.334 145.548 144.89C145.643 144.445 145.77 144.091 145.834 144.104Z" fill="#9DB6CE"/>
<path d="M148.077 144.168C148.136 144.195 147.977 144.622 147.718 145.076C147.459 145.53 147.205 145.92 147.151 145.888C147.2 145.563 147.323 145.252 147.509 144.98C147.763 144.504 148.004 144.14 148.077 144.168Z" fill="#9DB6CE"/>
<path d="M150.36 144.767C150.415 144.803 150.206 145.221 149.906 145.702C149.606 146.183 149.293 146.547 149.239 146.51C149.184 146.474 149.393 146.056 149.693 145.575C149.992 145.094 150.306 144.731 150.36 144.767Z" fill="#9DB6CE"/>
<path d="M151.831 146.147C151.881 146.184 151.682 146.56 151.377 146.992C151.073 147.423 150.792 147.741 150.742 147.704C150.692 147.668 150.887 147.287 151.196 146.855C151.505 146.424 151.777 146.106 151.831 146.147Z" fill="#9DB6CE"/>
<path d="M152.857 147.9C152.912 147.936 152.707 148.304 152.362 148.685C152.017 149.066 151.672 149.302 151.631 149.257C151.591 149.212 151.854 148.898 152.19 148.526C152.526 148.154 152.803 147.859 152.857 147.9Z" fill="#9DB6CE"/>
<path d="M152.707 150.574C152.757 150.61 152.644 150.833 152.376 150.951C152.108 151.069 151.863 151.005 151.872 150.951C151.881 150.896 152.067 150.837 152.281 150.742C152.494 150.646 152.657 150.528 152.707 150.574Z" fill="#9DB6CE"/>
<path d="M151.255 152.862C151.255 152.921 151.214 152.998 151.114 152.984C151.014 152.971 150.982 152.871 151.023 152.821C151.038 152.799 151.057 152.781 151.08 152.769C151.103 152.756 151.129 152.749 151.155 152.748C151.18 152.757 151.202 152.773 151.219 152.792C151.236 152.812 151.249 152.836 151.255 152.862Z" fill="#9DB6CE"/>
<path d="M135.424 153.765C135.746 153.086 135.994 152.373 136.164 151.641C136.26 150.888 136.276 150.127 136.209 149.371C136.472 150.105 136.537 150.896 136.399 151.664C136.262 152.431 135.925 153.15 135.424 153.747V153.765Z" fill="#263238"/>
<path d="M137.294 153.552C137.593 152.925 137.822 152.268 137.975 151.591C138.055 150.9 138.055 150.202 137.975 149.511C138.249 150.181 138.331 150.914 138.211 151.628C138.092 152.341 137.776 153.008 137.299 153.552H137.294Z" fill="#263238"/>
<path d="M139.65 153.566C140.467 152.264 140.756 150.701 140.458 149.193C140.588 149.386 140.669 149.607 140.694 149.838C140.801 150.387 140.801 150.951 140.694 151.5C140.597 152.05 140.391 152.576 140.091 153.048C139.868 153.407 139.673 153.584 139.65 153.566Z" fill="#263238"/>
<path d="M142.311 153.407C142.583 152.7 142.788 151.968 142.924 151.223C142.977 150.466 142.962 149.707 142.878 148.953C143.159 149.685 143.254 150.475 143.155 151.253C143.056 152.031 142.766 152.773 142.311 153.411V153.407Z" fill="#263238"/>
<path d="M134.947 151.414C134.826 151.467 134.692 151.485 134.561 151.468C134.201 151.445 133.853 151.331 133.549 151.137C133.113 150.842 132.731 150.473 132.423 150.047C132.213 149.807 132.047 149.532 131.932 149.234C131.875 149.063 131.861 148.881 131.891 148.703C131.926 148.512 132.026 148.339 132.173 148.213C132.316 148.098 132.486 148.02 132.666 147.986C132.847 147.952 133.033 147.963 133.208 148.018C133.517 148.119 133.796 148.296 134.021 148.531C134.395 148.907 134.684 149.359 134.87 149.856C134.996 150.187 135.071 150.534 135.092 150.887C135.112 151.016 135.105 151.147 135.069 151.273C135 150.808 134.881 150.351 134.715 149.911C134.517 149.448 134.228 149.03 133.866 148.681C133.667 148.472 133.419 148.316 133.144 148.227C133.006 148.185 132.859 148.178 132.717 148.205C132.575 148.232 132.441 148.292 132.327 148.381C132.224 148.477 132.152 148.602 132.121 148.74C132.091 148.878 132.102 149.022 132.155 149.153C132.262 149.427 132.416 149.68 132.609 149.902C132.895 150.317 133.248 150.682 133.653 150.982C134.034 151.247 134.483 151.396 134.947 151.414Z" fill="#263238"/>
<path d="M134.838 151.345C134.83 151.465 134.8 151.581 134.752 151.69C134.65 152.004 134.519 152.308 134.361 152.598C134.132 153.04 133.783 153.408 133.354 153.661C133.09 153.81 132.794 153.891 132.491 153.897C132.315 153.909 132.139 153.876 131.98 153.8C131.821 153.724 131.685 153.609 131.583 153.466C131.503 153.31 131.47 153.134 131.488 152.96C131.506 152.787 131.573 152.621 131.683 152.485C131.859 152.241 132.093 152.044 132.364 151.913C132.809 151.715 133.28 151.581 133.762 151.513C134.191 151.407 134.629 151.341 135.07 151.318C134.657 151.474 134.232 151.594 133.798 151.677C133.338 151.766 132.89 151.911 132.464 152.108C132.229 152.227 132.026 152.402 131.873 152.617C131.792 152.717 131.741 152.839 131.726 152.967C131.711 153.096 131.732 153.226 131.787 153.343C131.866 153.448 131.97 153.532 132.088 153.588C132.207 153.644 132.337 153.671 132.468 153.665C132.733 153.664 132.994 153.597 133.226 153.47C133.628 153.241 133.963 152.911 134.198 152.512C134.611 151.813 134.779 151.323 134.838 151.345Z" fill="#263238"/>
<path d="M134.652 153.28C134.597 153.234 134.861 152.885 134.938 152.372C135.015 151.859 134.888 151.464 134.938 151.427C135.053 151.561 135.133 151.72 135.171 151.892C135.209 152.064 135.204 152.243 135.156 152.412C135.079 152.998 134.688 153.329 134.652 153.28Z" fill="#263238"/>
<path d="M135.664 150.106C135.723 150.106 135.664 150.469 135.469 150.842C135.274 151.214 135.015 151.45 134.965 151.414C134.915 151.377 135.074 151.082 135.26 150.733C135.446 150.383 135.601 150.083 135.664 150.106Z" fill="#263238"/>
<path d="M142.933 146.728C142.622 146.935 142.282 147.095 141.925 147.205C140.228 147.838 138.417 148.11 136.609 148.004C136.235 148.002 135.864 147.949 135.505 147.845C136.764 147.86 138.023 147.795 139.274 147.65C140.512 147.423 141.734 147.115 142.933 146.728Z" fill="#114F8C"/>
<path d="M141.807 154.088C140.987 154.264 140.153 154.361 139.314 154.378C138.483 154.474 137.644 154.492 136.808 154.433C137.628 154.256 138.463 154.159 139.301 154.142C140.133 154.046 140.972 154.028 141.807 154.088Z" fill="#114F8C"/>
<path d="M147.831 154.265C148.4 154.185 148.945 153.983 149.429 153.674C149.941 153.325 150.351 152.848 150.619 152.29C150.927 151.601 151.013 150.832 150.864 150.092C150.72 149.347 150.371 148.657 149.856 148.099C149.431 147.648 148.922 147.284 148.358 147.028C147.822 146.81 147.265 146.647 146.696 146.542C146.854 146.513 147.015 146.513 147.173 146.542C147.602 146.592 148.022 146.701 148.421 146.864C149.022 147.108 149.565 147.474 150.015 147.94C150.569 148.521 150.944 149.25 151.096 150.038C151.256 150.827 151.157 151.647 150.814 152.376C150.522 152.962 150.074 153.457 149.52 153.806C149.15 154.04 148.736 154.194 148.303 154.26C148.148 154.291 147.988 154.293 147.831 154.265Z" fill="#114F8C"/>
<path d="M119.111 143.105L130.915 148.349C131.03 149.85 130.781 151.356 130.189 152.739C129.326 154.51 126.707 154.156 126.707 154.156L116.319 151.74L118.635 150.378L119.111 143.105Z" fill="#FFBE9D"/>
<path d="M129.662 153.67C129.195 153.343 128.769 152.962 128.391 152.535C128.014 152.103 127.802 151.551 127.792 150.978C127.843 150.461 128.018 149.965 128.3 149.529C128.542 149.004 128.957 148.577 129.476 148.322C130.13 148.077 130.838 148.358 131.478 148.671L131.601 151.305L129.662 153.67Z" fill="#E0E0E0"/>
<path d="M130.934 148.349C130.906 148.408 128.242 147.282 124.977 145.834C121.713 144.386 119.075 143.164 119.112 143.11C119.148 143.055 121.808 144.172 125.073 145.621C128.337 147.069 130.961 148.286 130.934 148.349Z" fill="#EB996E"/>
<path d="M144.372 100.747C144.486 100.753 144.599 100.737 144.707 100.699C144.814 100.661 144.913 100.602 144.997 100.525C145.081 100.449 145.15 100.357 145.198 100.254C145.247 100.151 145.275 100.039 145.28 99.9254C145.412 96.1935 142.951 87.74 141.771 84.2306C141.049 82.0877 138.593 80.5214 136.904 79.3683C134.842 77.9745 127.556 76.2675 125.154 75.6046H124.346L113.182 74.7738L107.049 77.7112C107.049 77.7112 98.5452 80.9346 96.08 85.4292C93.6148 89.9238 91.7397 103.058 91.7397 103.058C91.7397 103.058 90.6093 106.813 91.7397 108.506C92.4434 109.564 95.063 110.481 97.4193 110.93C96.1435 115.18 97.1514 118.335 97.106 118.875C97.0107 119.992 96.1526 122.594 98.1638 122.435C100.175 122.276 115.902 118.122 120.573 117.936C124.529 117.828 128.44 118.788 131.896 120.714C134.252 122.035 134.234 122.131 135.074 119.806C135.914 117.482 133.231 114.862 133.231 114.862C133.231 114.862 135.637 106.168 136.758 100.484L144.372 100.747Z" fill="#9DB6CE"/>
<path d="M106.922 95.6986C106.922 95.6986 106.781 95.5761 106.567 95.3218C106.354 95.0676 106.018 94.6726 105.659 94.2458C104.683 93.06 103.621 91.9477 102.481 90.918C101.847 90.3596 101.166 89.8554 100.447 89.4107C99.8603 89.0527 99.2419 88.7488 98.5997 88.5027C97.4965 88.0851 96.7837 87.9806 96.7837 87.9352C96.9563 87.9317 97.1287 87.95 97.2967 87.9897C97.4976 88.0185 97.6963 88.0609 97.8915 88.1168C98.1535 88.1772 98.4113 88.2546 98.6633 88.3484C99.3268 88.5791 99.9656 88.8757 100.57 89.2337C101.305 89.675 102 90.1809 102.645 90.7455C103.806 91.7812 104.87 92.9209 105.823 94.1505C106.191 94.6045 106.481 95.004 106.672 95.2764C106.768 95.4092 106.851 95.5505 106.922 95.6986Z" fill="#263238"/>
<path d="M104.874 108.252C104.693 108.285 104.509 108.299 104.325 108.293C103.97 108.293 103.457 108.315 102.822 108.293C101.17 108.283 99.5216 108.16 97.8869 107.925C96.2518 107.695 94.648 107.281 93.1063 106.69C92.6413 106.511 92.1865 106.306 91.7443 106.077C91.5746 106.005 91.4145 105.912 91.2676 105.8C91.2676 105.764 91.9849 106.109 93.1744 106.536C94.7239 107.077 96.3217 107.469 97.9459 107.707C99.5719 107.934 101.208 108.078 102.849 108.138L104.347 108.197C104.524 108.196 104.701 108.215 104.874 108.252Z" fill="#263238"/>
<path d="M128.482 112.51C128.445 112.632 128.39 112.746 128.318 112.851C128.148 113.144 127.962 113.427 127.76 113.7C126.421 115.514 124.61 116.927 122.525 117.786C122.212 117.918 121.891 118.031 121.563 118.122C121.446 118.165 121.324 118.191 121.2 118.199C121.2 118.158 121.685 117.99 122.457 117.636C123.457 117.167 124.403 116.59 125.277 115.915C126.145 115.232 126.934 114.454 127.628 113.595C128.141 112.937 128.427 112.492 128.482 112.51Z" fill="#263238"/>
<path d="M128.664 115.997C128.453 116.234 128.203 116.432 127.924 116.583C127.284 116.996 126.599 117.333 125.881 117.586C125.162 117.839 124.417 118.009 123.661 118.094C123.348 118.148 123.029 118.148 122.716 118.094C123.76 117.919 124.79 117.671 125.799 117.354C126.784 116.969 127.741 116.515 128.664 115.997Z" fill="#263238"/>
<path d="M141.739 84.2306C141.739 84.3612 141.721 84.4911 141.684 84.6165C141.613 84.9616 141.524 85.3026 141.416 85.638C141.069 86.7465 140.599 87.8126 140.013 88.816C139.425 89.8214 138.727 90.7592 137.934 91.6126C137.63 91.935 137.371 92.1847 137.181 92.3481C136.99 92.5115 136.885 92.5978 136.872 92.5842C136.858 92.5706 137.235 92.171 137.812 91.4991C138.559 90.6266 139.228 89.6891 139.809 88.6979C140.385 87.7024 140.869 86.657 141.257 85.5744C141.557 84.7527 141.702 84.2215 141.739 84.2306Z" fill="#263238"/>
<path d="M144.599 98.7495C144.237 98.8201 143.869 98.8491 143.5 98.8358C142.819 98.8358 141.879 98.8358 140.844 98.8358C139.809 98.8358 138.869 98.7268 138.193 98.6542C137.824 98.6383 137.459 98.5805 137.103 98.4816C137.469 98.4461 137.837 98.4461 138.202 98.4816L140.853 98.5951L143.5 98.6859C143.868 98.6697 144.236 98.691 144.599 98.7495Z" fill="#263238"/>
<path d="M135.746 85.7333C135.815 85.928 135.867 86.1286 135.9 86.3326C135.991 86.7866 136.109 87.3177 136.245 87.9806C136.527 89.3744 136.931 91.3039 137.153 93.4694C137.364 95.3209 137.355 97.1907 137.126 99.04C137.022 99.7437 136.917 100.311 136.817 100.697C136.779 100.901 136.723 101.102 136.649 101.296C136.654 101.088 136.68 100.882 136.727 100.679C136.799 100.293 136.881 99.721 136.958 99.0173C137.139 97.1793 137.125 95.3273 136.917 93.4921C136.677 91.3447 136.3 89.4061 136.064 88.0124C135.941 87.3132 135.846 86.7412 135.791 86.3507C135.753 86.1473 135.738 85.9401 135.746 85.7333Z" fill="#263238"/>
<path d="M106.921 97.2695C106.93 97.4457 106.919 97.6223 106.89 97.7962C106.853 98.1321 106.794 98.6134 106.717 99.2081C106.558 100.402 106.318 102.05 105.986 103.857C105.718 105.405 105.36 106.936 104.915 108.442C104.777 108.898 104.613 109.345 104.424 109.782C104.359 109.942 104.275 110.094 104.175 110.236C104.138 110.236 104.456 109.546 104.756 108.383C105.055 107.221 105.423 105.605 105.755 103.803C106.086 102 106.349 100.361 106.554 99.1763C106.648 98.6224 106.729 98.1548 106.799 97.7735C106.82 97.6012 106.861 97.4321 106.921 97.2695Z" fill="#263238"/>
<path d="M105.391 90.0372C105.585 90.3167 105.738 90.6224 105.845 90.9452C106.461 92.4377 106.859 94.0111 107.026 95.6169C107.075 95.948 107.075 96.2845 107.026 96.6157C106.953 96.6157 106.812 95.1084 106.349 93.2969C105.886 91.4855 105.328 90.0645 105.391 90.0372Z" fill="#263238"/>
<path d="M118.24 106.136C118.275 106.047 118.318 105.96 118.367 105.877C118.467 105.696 118.603 105.455 118.771 105.146L120.296 102.445C121.627 100.13 123.474 96.9154 125.599 93.2199L125.749 93.3788C124.387 94.0325 122.961 94.6772 121.445 95.2765C119.629 96.0029 117.813 96.6158 116.138 97.0925L115.784 97.1969L116.02 96.9109L122.376 89.1929L124.237 86.9683L124.741 86.3781C124.797 86.3077 124.86 86.2424 124.927 86.1829C124.882 86.2613 124.831 86.3357 124.773 86.4053L124.296 87.0137L122.48 89.2837L116.179 97.0698L116.056 96.8882C117.727 96.3888 119.52 95.7759 121.341 95.0722C122.848 94.4729 124.292 93.8328 125.631 93.1881L125.971 93.0246L125.781 93.347L120.405 102.531L118.821 105.201L118.367 105.914C118.331 105.992 118.289 106.066 118.24 106.136Z" fill="white"/>
<g opacity="0.3">
<path opacity="0.3" d="M126.385 118.562C126.92 118.703 127.946 117.082 128.541 116.088C126.725 117.096 124.973 118.303 122.939 117.863C124.069 117.561 125.108 116.985 125.963 116.186C126.818 115.387 127.463 114.389 127.842 113.282C126.422 115.449 124.324 117.086 121.876 117.936C121.876 117.936 125.536 118.34 126.385 118.562Z" fill="black"/>
</g>
<path d="M105.391 70.37C105.391 70.37 105.7 70.4972 106.299 70.6243C107.119 70.8203 107.981 70.7356 108.747 70.3837C109.262 70.1304 109.692 69.7309 109.981 69.235C110.15 68.9588 110.255 68.6486 110.29 68.3267C110.324 68.0049 110.287 67.6794 110.181 67.3736C110.074 67.0338 109.878 66.7287 109.614 66.4894C109.35 66.25 109.027 66.0852 108.678 66.0116C108.303 65.9691 107.923 66.0485 107.596 66.2382C107.269 66.4279 107.012 66.7177 106.862 67.0649C106.794 67.2396 106.762 67.4265 106.769 67.614C106.776 67.8015 106.822 67.9855 106.903 68.1545C107.075 68.4865 107.344 68.7576 107.675 68.9309C107.99 69.1103 108.348 69.2027 108.71 69.1987C109.06 69.1905 109.405 69.1101 109.723 68.9626C110.319 68.6754 110.839 68.2506 111.239 67.7232C111.602 67.2712 111.896 66.7678 112.111 66.2296C112.421 65.4437 112.576 64.6048 112.565 63.7598C112.565 63.1651 112.488 62.8518 112.51 62.8291C112.543 62.9043 112.564 62.9838 112.574 63.0652C112.616 63.2946 112.644 63.5267 112.655 63.7598C112.697 64.6224 112.557 65.4841 112.242 66.2886C112.031 66.8483 111.737 67.3733 111.371 67.8458C110.957 68.4039 110.415 68.8539 109.791 69.1579C109.447 69.3215 109.073 69.4127 108.692 69.4257C108.289 69.4313 107.891 69.3312 107.539 69.1352C107.165 68.9386 106.862 68.6308 106.672 68.2544C106.574 68.0573 106.519 67.8417 106.51 67.6219C106.502 67.402 106.54 67.1828 106.622 66.9787C106.789 66.5829 107.081 66.2523 107.453 66.0369C107.825 65.8215 108.256 65.733 108.683 65.7846C109.07 65.8616 109.43 66.0414 109.724 66.3049C110.017 66.5685 110.235 66.9063 110.354 67.2828C110.467 67.618 110.505 67.9741 110.465 68.3256C110.425 68.6772 110.308 69.0156 110.122 69.3168C109.805 69.8377 109.343 70.2544 108.792 70.5153C107.99 70.8712 107.089 70.9354 106.245 70.6969C106.019 70.6398 105.799 70.5623 105.587 70.4654C105.518 70.4406 105.453 70.4086 105.391 70.37Z" fill="#263238"/>
<path d="M140.985 60.3502C141.08 59.4275 140.977 58.495 140.682 57.6156C140.386 56.7362 139.906 55.9302 139.274 55.2518C138.629 54.5833 137.825 54.0894 136.937 53.8162C136.049 53.5431 135.107 53.4997 134.198 53.69C132.889 53.9333 131.685 54.5663 130.743 55.506C130.453 55.7969 130.216 56.1365 130.044 56.5094C130.012 56.5639 129.985 56.6229 129.953 56.6819C129.921 56.7409 129.885 56.8317 129.853 56.9089V56.9452C129.291 58.2307 129.151 59.6612 129.454 61.0312C129.697 62.0651 130.2 63.0199 130.915 63.8055C131.63 64.5911 132.533 65.1816 133.54 65.5213C134.558 65.8277 135.64 65.8491 136.669 65.5834C137.699 65.3177 138.636 64.7749 139.378 64.014C140.303 63.0034 140.868 61.7153 140.985 60.3502Z" fill="#263238"/>
<path d="M140.173 63.3829C140.132 63.3829 140.05 62.8654 139.719 62.089C139.308 61.0757 138.67 60.1704 137.853 59.443C137.037 58.7156 136.064 58.1856 135.011 57.8941C134.202 57.6671 133.649 57.6489 133.676 57.6035C133.799 57.583 133.925 57.583 134.048 57.6035C134.386 57.6216 134.722 57.6702 135.051 57.7488C136.151 58.0022 137.169 58.5285 138.012 59.2791C138.854 60.0297 139.495 60.9805 139.873 62.0436C139.988 62.3623 140.074 62.6905 140.132 63.0243C140.165 63.1408 140.179 63.2619 140.173 63.3829Z" fill="#9DB6CE"/>
<path d="M138.397 59.7963C138.315 60.1709 138.175 60.5306 137.984 60.8632C137.561 61.6889 137.016 62.4464 136.368 63.1105C135.715 63.7687 134.967 64.3243 134.148 64.7585C133.82 64.9619 133.463 65.1149 133.09 65.2125C133.045 65.1354 134.706 64.4907 136.2 62.9425C137.694 61.3944 138.325 59.7509 138.397 59.7963Z" fill="#9DB6CE"/>
<path d="M133.499 57.8441C133.431 57.8033 133.975 56.9361 134.407 55.7739C134.649 55.0636 134.809 54.3279 134.883 53.5811C134.963 53.7956 134.991 54.0257 134.965 54.253C134.941 54.8019 134.828 55.3433 134.629 55.8556C134.383 56.5845 133.999 57.2595 133.499 57.8441Z" fill="#114F8C"/>
<path d="M133.567 56.2643C133.678 53.6734 132.802 51.1368 131.118 49.1654C129.433 47.1941 127.063 45.9346 124.487 45.6407C123.157 45.4924 121.81 45.6137 120.528 45.9976C119.246 46.3814 118.054 47.0198 117.024 47.8746C115.995 48.7294 115.148 49.7831 114.534 50.9726C113.921 52.1622 113.554 53.4632 113.455 54.7979L112.547 77.2073C112.53 77.6411 112.66 78.0678 112.914 78.4195C114.327 80.3591 116.448 81.664 118.816 82.0515C120.869 82.2519 122.931 81.7837 124.696 80.7167C124.983 80.5466 125.221 80.304 125.385 80.0132C125.549 79.7223 125.634 79.3935 125.631 79.0596V74.0656C125.631 74.0572 125.634 74.0491 125.64 74.0431C125.646 74.0372 125.654 74.0338 125.663 74.0338C126.131 74.0606 126.601 74.0393 127.065 73.9703C128.387 73.6207 131.742 72.2587 132.781 67.2783C133.085 65.5894 133.381 60.9132 133.567 56.2643Z" fill="#FFBE9D"/>
<path d="M126.344 63.7189C126.817 63.6001 127.304 63.5391 127.792 63.5372C128.019 63.5372 128.246 63.4918 128.282 63.342C128.309 63.1138 128.266 62.8828 128.16 62.6792C127.973 62.1298 127.774 61.5533 127.569 60.954C126.752 58.4978 126.171 56.4866 126.271 56.4548C126.371 56.4231 127.115 58.3889 127.933 60.8405C128.128 61.4488 128.318 62.0254 128.496 62.5748C128.625 62.8482 128.652 63.1591 128.573 63.451C128.536 63.5282 128.482 63.5961 128.415 63.6496C128.348 63.703 128.27 63.7407 128.187 63.7597C128.06 63.7871 127.93 63.7977 127.801 63.7915C127.314 63.8273 126.825 63.8029 126.344 63.7189Z" fill="#263238"/>
<path d="M131.41 59.6056C131.4 59.8176 131.307 60.0171 131.152 60.162C130.997 60.3069 130.792 60.3858 130.579 60.382C130.475 60.3856 130.371 60.3684 130.274 60.3315C130.176 60.2945 130.087 60.2384 130.011 60.1666C129.936 60.0947 129.875 60.0085 129.833 59.913C129.791 59.8174 129.768 59.7145 129.767 59.6102C129.775 59.3974 129.867 59.1965 130.023 59.0512C130.178 58.9058 130.385 58.8277 130.598 58.8339C130.702 58.8302 130.806 58.8474 130.903 58.8844C131.001 58.9214 131.09 58.9774 131.166 59.0493C131.241 59.1211 131.302 59.2073 131.344 59.3029C131.386 59.3984 131.408 59.5013 131.41 59.6056Z" fill="#263238"/>
<path d="M132.227 57.1404C132.146 57.2267 131.487 57.1858 130.652 57.4673C129.817 57.7488 129.263 58.1892 129.154 58.1665C129.045 58.1438 129.154 58.0212 129.413 57.8214C129.765 57.5455 130.163 57.3335 130.588 57.1949C130.997 57.0495 131.431 56.9848 131.864 57.0042C132.15 57.0269 132.268 57.095 132.227 57.1404Z" fill="#263238"/>
<path d="M122.893 59.0472C122.883 59.2591 122.79 59.4587 122.635 59.6035C122.48 59.7484 122.275 59.8273 122.062 59.8235C121.958 59.8265 121.855 59.8089 121.757 59.7717C121.66 59.7345 121.571 59.6784 121.496 59.6067C121.42 59.535 121.359 59.449 121.317 59.3537C121.275 59.2585 121.252 59.1559 121.25 59.0517C121.259 58.8394 121.351 58.6392 121.507 58.494C121.662 58.3489 121.868 58.2704 122.081 58.2754C122.185 58.2717 122.289 58.2889 122.386 58.3259C122.484 58.3629 122.573 58.419 122.649 58.4908C122.724 58.5627 122.785 58.6489 122.827 58.7444C122.869 58.8399 122.891 58.9429 122.893 59.0472Z" fill="#263238"/>
<path d="M123.184 57.8669C123.052 57.8669 122.571 57.3493 121.708 56.9589C120.846 56.5684 120.092 56.4685 120.028 56.3687C119.965 56.2688 120.151 56.2733 120.482 56.3051C120.956 56.3628 121.417 56.501 121.844 56.7137C122.27 56.9072 122.655 57.1799 122.979 57.5173C123.206 57.7261 123.243 57.8623 123.184 57.8669Z" fill="#263238"/>
<path d="M125.59 74.0019C125.59 74.0019 122.162 74.1018 118.004 71.3596C118.004 71.3596 119.148 75.8678 125.59 75.6045V74.0019Z" fill="#EB996E"/>
<path d="M125.876 65.7936C125.714 65.5772 125.502 65.4043 125.257 65.2902C125.012 65.1761 124.743 65.1244 124.473 65.1399C124.278 65.1479 124.086 65.1946 123.91 65.2772C123.733 65.3598 123.574 65.4767 123.443 65.6211C123.32 65.7603 123.243 65.9337 123.222 66.1179C123.201 66.3021 123.237 66.4884 123.324 66.6517C123.461 66.8161 123.642 66.9368 123.846 66.999C124.05 67.0611 124.268 67.0619 124.473 67.0013C124.895 66.8758 125.288 66.6692 125.631 66.3929C125.734 66.3285 125.825 66.2454 125.899 66.1478C125.93 66.1 125.947 66.0439 125.947 65.9866C125.947 65.9292 125.93 65.8731 125.899 65.8254" fill="#EB996E"/>
<path d="M123.715 64.1865C123.856 64.1865 123.815 65.1309 124.623 65.8436C125.431 66.5564 126.439 66.5019 126.439 66.6336C126.439 66.6926 126.203 66.8061 125.772 66.797C125.21 66.775 124.673 66.5602 124.251 66.1887C123.856 65.8392 123.609 65.352 123.561 64.8267C123.529 64.409 123.647 64.1775 123.715 64.1865Z" fill="#263238"/>
<path d="M123.779 54.3529C123.656 54.5708 122.803 54.312 121.758 54.253C120.714 54.194 119.838 54.3302 119.738 54.0941C119.697 53.9852 119.874 53.7899 120.247 53.6401C120.74 53.4351 121.275 53.3496 121.808 53.3904C122.343 53.4185 122.863 53.5742 123.325 53.8444C123.679 54.026 123.838 54.2485 123.779 54.3529Z" fill="#263238"/>
<path d="M132.209 54.48C132.046 54.6707 131.446 54.4346 130.716 54.3892C129.985 54.3438 129.354 54.4528 129.222 54.2394C129.163 54.135 129.272 53.9398 129.549 53.7854C129.927 53.582 130.355 53.4922 130.783 53.5268C131.211 53.5614 131.619 53.719 131.959 53.9806C132.209 54.1895 132.282 54.3983 132.209 54.48Z" fill="#263238"/>
<path d="M125.231 44.492C124.777 43.7157 123.869 43.3752 122.925 43.2435C118.993 42.7259 114.662 45.1685 112.528 48.5099C110.394 51.8513 110.367 56.7954 112.042 60.382L113.518 60.6135C116.578 60.3729 121.572 51.7424 125.776 46.9482C126.298 46.358 125.649 45.1821 125.231 44.492Z" fill="#263238"/>
<path d="M132.786 46.939C131.115 45.123 128.405 42.8802 125.027 44.215C124.541 45.1775 125.576 46.3987 126.43 47.1024C127.687 48.1421 128.782 48.8367 129.608 49.5767C131.274 51.0795 133.353 53.5765 133.567 56.3867C133.567 56.5638 133.717 56.5865 133.894 56.5547C134.071 56.5229 134.625 55.3607 134.87 53.8307C135.378 50.5801 134.461 48.7732 132.786 46.939Z" fill="#263238"/>
<path d="M113.759 55.4879C113.578 54.7369 113.223 54.0388 112.724 53.4495C112.397 53.0622 112.011 52.7296 111.579 52.4643C110.773 52.0033 109.863 51.7544 108.934 51.7409C108.005 51.7274 107.087 51.9498 106.268 52.3871C105.46 52.8393 104.759 53.4588 104.211 54.2043C103.663 54.9497 103.281 55.8038 103.09 56.7092C102.777 58.0465 102.916 59.4498 103.485 60.6999C103.96 61.6507 104.687 62.4529 105.587 63.0189C106.487 63.5849 107.525 63.893 108.588 63.9096C109.651 63.898 110.694 63.6156 111.618 63.0889C112.542 62.5622 113.316 61.8087 113.868 60.8996C114.621 59.6193 114.408 57.3584 113.759 55.4879Z" fill="#263238"/>
<path d="M114.458 58.8111C114.367 58.7657 110.717 57.3992 110.558 61.2128C110.399 65.0264 114.263 64.3908 114.272 64.2909C114.281 64.191 114.458 58.8111 114.458 58.8111Z" fill="#FFBE9D"/>
<path d="M113.169 62.7973C113.169 62.7973 113.1 62.8426 112.987 62.888C112.827 62.9517 112.648 62.9517 112.488 62.888C112.093 62.7201 111.779 62.0663 111.788 61.3808C111.791 61.0528 111.869 60.7299 112.015 60.4364C112.056 60.3186 112.125 60.2124 112.216 60.1271C112.307 60.0417 112.417 59.9796 112.537 59.9461C112.614 59.9295 112.695 59.9404 112.764 59.9769C112.834 60.0134 112.889 60.0732 112.919 60.1459C112.969 60.2548 112.942 60.3275 112.96 60.3366C112.978 60.3456 113.046 60.2775 113.019 60.1186C113.004 60.0221 112.954 59.9345 112.878 59.8735C112.777 59.7892 112.646 59.7484 112.515 59.76C112.357 59.7852 112.209 59.8501 112.083 59.9486C111.958 60.0471 111.859 60.1759 111.797 60.3229C111.623 60.6468 111.529 61.0082 111.525 61.3762C111.525 62.1435 111.879 62.879 112.433 63.0651C112.534 63.099 112.642 63.1097 112.748 63.0964C112.854 63.083 112.956 63.0459 113.046 62.9879C113.159 62.888 113.182 62.8063 113.169 62.7973Z" fill="#EB996E"/>
<path d="M133.571 47.7018C133.209 47.8014 132.835 47.8503 132.459 47.847C131.558 47.8978 130.654 47.8674 129.758 47.7562C128.865 47.6525 127.982 47.4717 127.12 47.216C126.755 47.129 126.403 46.9915 126.076 46.8074C126.445 46.8632 126.809 46.9467 127.165 47.0571C128.034 47.2662 128.913 47.4268 129.799 47.5383C130.685 47.64 131.576 47.6931 132.468 47.6972C132.835 47.6692 133.204 47.6707 133.571 47.7018Z" fill="#9DB6CE"/>
<path d="M134.838 50.4394C134.578 50.5576 134.297 50.6239 134.012 50.6346C133.323 50.7104 132.627 50.6736 131.951 50.5257C131.276 50.3771 130.629 50.1211 130.035 49.7675C129.777 49.6394 129.549 49.4602 129.363 49.2408C130.195 49.6999 131.081 50.0537 132.001 50.2941C132.937 50.4556 133.89 50.5043 134.838 50.4394Z" fill="#9DB6CE"/>
<path d="M112.043 49.8265C112.043 49.7766 112.869 49.9219 114.199 49.8855C114.979 49.8644 115.756 49.7855 116.524 49.6495C117.46 49.473 118.384 49.2334 119.288 48.9321C120.192 48.6206 121.074 48.2522 121.931 47.8289C122.627 47.4786 123.303 47.0891 123.956 46.6621C125.072 45.9357 125.694 45.3864 125.726 45.4182C125.599 45.5677 125.458 45.7045 125.304 45.8268C125.168 45.9539 124.991 46.0992 124.777 46.2808C124.564 46.4624 124.323 46.6349 124.051 46.821C123.403 47.2711 122.727 47.6791 122.026 48.0423C121.167 48.4803 120.278 48.858 119.366 49.1728C118.45 49.48 117.512 49.7167 116.56 49.881C115.781 50.0085 114.993 50.0722 114.204 50.0717C113.901 50.0771 113.597 50.0649 113.296 50.0354C113.067 50.0268 112.84 50.0025 112.615 49.9627C112.42 49.9351 112.229 49.8895 112.043 49.8265Z" fill="#9DB6CE"/>
<path d="M125.472 46.7621C125.389 46.9493 125.287 47.1273 125.168 47.2933C125.063 47.4613 124.932 47.6656 124.764 47.888C124.596 48.1105 124.419 48.3783 124.183 48.6417C123.66 49.2823 123.088 49.8804 122.471 50.4304C121.71 51.0978 120.891 51.6964 120.024 52.2192C119.147 52.7313 118.224 53.1614 117.268 53.504C116.488 53.7772 115.686 53.9838 114.871 54.1214C114.526 54.1941 114.208 54.2168 113.931 54.2486C113.694 54.2816 113.454 54.2998 113.214 54.303C113.01 54.3197 112.805 54.3197 112.601 54.303C112.601 54.2531 113.473 54.2349 114.839 53.9625C115.64 53.8023 116.428 53.5822 117.196 53.3042C119.079 52.6181 120.818 51.5883 122.326 50.267C122.944 49.7334 123.522 49.1552 124.055 48.5372C124.973 47.4658 125.431 46.7303 125.472 46.7621Z" fill="#9DB6CE"/>
<path d="M122.925 43.2571C123.181 43.2069 123.446 43.2257 123.692 43.3116C124.297 43.4844 124.841 43.8261 125.259 44.2968C125.379 44.4377 125.485 44.5897 125.576 44.7508C125.656 44.8949 125.72 45.0471 125.767 45.2048C125.859 45.4651 125.93 45.7323 125.98 46.0038C126.048 46.2585 126.029 46.5285 125.926 46.7711C125.885 46.7711 125.926 46.476 125.817 46.0401C125.746 45.7811 125.659 45.5264 125.558 45.2774C125.513 45.1292 125.452 44.9862 125.377 44.8506C125.291 44.71 125.192 44.5778 125.082 44.4557C124.689 44.0153 124.195 43.6771 123.642 43.4705C123.216 43.3207 122.925 43.298 122.925 43.2571Z" fill="#9DB6CE"/>
<path d="M112.86 58.4798C112.823 58.4798 112.937 58.0848 113.019 57.4583C113.121 56.6408 113.073 55.8116 112.878 55.0112C112.671 54.2162 112.275 53.4827 111.725 52.8729C111.271 52.4189 110.953 52.1964 110.98 52.1555C111.007 52.1147 111.075 52.1873 111.234 52.2827C111.454 52.4107 111.658 52.563 111.843 52.7367C112.456 53.3403 112.892 54.1002 113.105 54.934C113.315 55.7611 113.342 56.6244 113.182 57.4628C113.138 57.8188 113.029 58.1635 112.86 58.4798Z" fill="#114F8C"/>
<path d="M113.146 57.6581C113.123 57.6898 112.656 57.3902 111.852 56.9907C109.757 55.9552 107.443 55.4397 105.106 55.4879C104.198 55.4879 103.662 55.5787 103.653 55.5424C103.774 55.4904 103.903 55.4582 104.034 55.4471C104.387 55.3834 104.743 55.3409 105.101 55.32C107.469 55.1798 109.829 55.7084 111.911 56.8454C112.226 57.0134 112.529 57.2014 112.819 57.4084C113.046 57.54 113.155 57.6263 113.146 57.6581Z" fill="#9DB6CE"/>
<path d="M109.673 56.1234C109.633 56.5093 109.537 56.8872 109.387 57.2448C109.071 58.1229 108.642 58.9561 108.111 59.7236C107.578 60.4903 106.946 61.1834 106.231 61.7848C105.95 62.0512 105.63 62.2732 105.282 62.4431C106.26 61.5885 107.143 60.6311 107.916 59.5874C108.623 58.4984 109.212 57.3372 109.673 56.1234Z" fill="#9DB6CE"/>
<path d="M112.183 63.5328C112.211 63.4601 112.347 63.4147 112.574 63.4738C112.902 63.5735 113.185 63.7857 113.373 64.073C113.625 64.4509 113.722 64.9109 113.646 65.3584C113.569 65.806 113.323 66.2071 112.96 66.4792C112.655 66.6974 112.292 66.8192 111.917 66.8289C111.542 66.8386 111.173 66.7358 110.858 66.5337C110.579 66.3515 110.351 66.1016 110.195 65.8073C110.051 65.541 109.976 65.2429 109.977 64.9402C109.986 64.6954 110.043 64.4547 110.145 64.2319C110.274 63.9042 110.524 63.639 110.844 63.4919C111.085 63.4011 111.23 63.4647 111.248 63.5373C111.275 63.7008 110.989 63.9187 110.944 64.4771C110.923 64.6125 110.923 64.7503 110.944 64.8857C110.98 65.018 111.04 65.1427 111.121 65.2534C111.204 65.3752 111.316 65.4748 111.447 65.5436C111.577 65.6124 111.723 65.6484 111.87 65.6484C112.01 65.6507 112.147 65.6135 112.267 65.5413C112.387 65.469 112.484 65.3646 112.547 65.2398C112.672 64.9992 112.7 64.7195 112.624 64.4589C112.488 63.955 112.138 63.6871 112.183 63.5328Z" fill="#9DB6CE"/>
<path d="M116.047 57.4991C116.825 57.4438 117.594 57.3084 118.344 57.095C120.134 56.4992 121.712 55.3948 122.884 53.917C124.034 52.4241 124.896 50.7307 125.427 48.923C125.645 48.2284 125.794 47.6609 125.881 47.2705C125.919 47.0627 125.977 46.8591 126.053 46.6621C126.044 46.8732 126.016 47.083 125.967 47.2886C125.899 47.6882 125.772 48.2647 125.576 48.9684C125.083 50.8191 124.225 52.5525 123.052 54.0668C121.854 55.5746 120.227 56.6829 118.385 57.2448C117.828 57.4075 117.253 57.5005 116.674 57.5218C116.522 57.5291 116.371 57.5291 116.22 57.5218C116.106 57.5127 116.047 57.5082 116.047 57.4991Z" fill="#263238"/>
<path d="M125.463 77.357C125.546 77.3806 125.625 77.419 125.694 77.4705C125.901 77.6079 126.083 77.7781 126.235 77.9745C126.475 78.2874 126.645 78.6481 126.734 79.0323C126.86 79.5426 126.846 80.0775 126.693 80.5804C126.468 81.2234 126.101 81.8074 125.619 82.2892C125.137 82.771 124.553 83.1381 123.91 83.3635C123.168 83.646 122.393 83.8351 121.604 83.9264C120.761 84.0379 119.91 84.0713 119.061 84.0263C117.406 83.9678 115.798 83.461 114.408 82.5599C113.27 81.8183 112.381 80.7523 111.856 79.4999C111.653 79.0203 111.55 78.5044 111.552 77.9836C111.557 77.5866 111.664 77.1975 111.861 76.8531C111.985 76.6368 112.152 76.4482 112.351 76.2992C112.418 76.2461 112.493 76.2046 112.574 76.1766C112.312 76.3674 112.097 76.614 111.943 76.8985C111.768 77.233 111.679 77.606 111.684 77.9836C111.698 78.4858 111.809 78.9806 112.011 79.4409C112.544 80.6461 113.421 81.6677 114.531 82.3783C115.892 83.2438 117.459 83.7312 119.071 83.7902C119.906 83.8344 120.743 83.8024 121.572 83.6949C122.348 83.613 123.111 83.433 123.842 83.1592C124.463 82.9533 125.031 82.6107 125.502 82.1566C125.974 81.7024 126.337 81.1483 126.566 80.535C126.698 80.1164 126.733 79.6733 126.668 79.2391C126.604 78.805 126.442 78.3912 126.194 78.029C125.988 77.7666 125.741 77.5397 125.463 77.357Z" fill="#263238"/>
<path d="M115.475 83.2409C115.405 82.864 115.485 82.4747 115.697 82.1558C115.988 81.5929 116.428 81.3068 116.465 81.3568C116.501 81.4067 116.169 81.7518 115.906 82.2648C115.643 82.7778 115.543 83.25 115.475 83.2409Z" fill="#263238"/>
<path d="M119.733 84.0491C119.632 83.7419 119.606 83.4151 119.656 83.0957C119.656 82.5736 119.742 82.1514 119.811 82.1514C119.912 82.4585 119.94 82.7849 119.892 83.1048C119.856 83.6269 119.802 84.0491 119.733 84.0491Z" fill="#263238"/>
<path d="M124.01 83.418C123.713 82.7544 123.566 82.0337 123.579 81.3069C123.762 81.6227 123.875 81.9742 123.91 82.3375C124.019 82.6866 124.053 83.0548 124.01 83.418Z" fill="#263238"/>
<path d="M126.507 80.6939C126.448 80.7257 126.271 80.4896 125.976 80.2989C125.681 80.1083 125.399 80.0265 125.404 79.9584C125.408 79.8903 125.758 79.8676 126.108 80.0992C126.457 80.3307 126.566 80.6712 126.507 80.6939Z" fill="#263238"/>
<path d="M113.218 78.996C113.218 79.0596 112.978 79.1459 112.737 79.3456C112.497 79.5454 112.347 79.7588 112.283 79.7361C112.22 79.7134 112.283 79.3956 112.587 79.1595C112.892 78.9234 113.214 78.937 113.218 78.996Z" fill="#263238"/>
<path d="M120.687 109.378C120.533 109.37 120.384 109.326 120.251 109.248C120.119 109.17 120.007 109.062 119.925 108.932C119.844 108.801 119.795 108.654 119.783 108.5C119.771 108.347 119.796 108.193 119.856 108.052C121.082 105.292 124.428 99.9799 124.646 99.6348C124.964 99.1536 125.132 98.5588 126.149 98.4363C126.539 98.3909 132.668 98.2501 134.107 98.2183C134.223 98.2137 134.339 98.2322 134.449 98.2728C134.558 98.3133 134.658 98.375 134.743 98.4544C135.029 98.7268 135.328 99.2444 134.874 100.057C134.366 100.965 130.661 106.717 129.159 108.933C129.012 109.148 128.813 109.324 128.58 109.442C128.348 109.56 128.089 109.618 127.828 109.609L120.687 109.378Z" fill="#263238"/>
<path d="M130.144 100.198C130.085 100.129 130.007 100.079 129.919 100.055C129.832 100.03 129.739 100.033 129.653 100.062C129.488 100.116 129.34 100.211 129.222 100.339C129.153 100.395 129.106 100.475 129.089 100.563C129.073 100.651 129.087 100.742 129.131 100.82C129.183 100.876 129.248 100.918 129.32 100.943C129.392 100.968 129.469 100.974 129.544 100.961C129.738 100.949 129.921 100.867 130.057 100.729C130.123 100.659 130.166 100.571 130.182 100.477C130.197 100.382 130.184 100.285 130.144 100.198Z" fill="white"/>
<path d="M133.295 101.446C133.357 101.262 133.437 101.084 133.535 100.915C133.626 100.738 133.726 100.534 133.844 100.311C133.907 100.193 133.971 100.066 134.039 99.9345C134.122 99.8142 134.175 99.6756 134.194 99.5304C134.196 99.4565 134.18 99.3831 134.148 99.3167C134.115 99.2502 134.067 99.1927 134.007 99.1491C133.937 99.1042 133.858 99.0738 133.775 99.0598C133.692 99.0458 133.608 99.0483 133.526 99.0674L132.273 99.1173L129.408 99.2172L126.539 99.3034H126.221C126.136 99.3107 126.054 99.3422 125.985 99.3942C125.86 99.5332 125.75 99.6854 125.658 99.8482C125.449 100.175 125.254 100.484 125.068 100.756L124.206 102.077C124.107 102.24 123.991 102.392 123.86 102.531C123.93 102.349 124.02 102.176 124.128 102.014L124.927 100.652L125.49 99.7166L125.645 99.4623C125.698 99.3616 125.769 99.2709 125.854 99.1945C125.951 99.1125 126.072 99.0619 126.199 99.0492H126.535L129.39 98.972L132.259 98.8903L133.508 98.863C133.719 98.8281 133.935 98.8752 134.112 98.9947C134.191 99.0581 134.254 99.1393 134.296 99.2315C134.337 99.3238 134.357 99.4247 134.352 99.5259C134.348 99.62 134.322 99.7118 134.275 99.7937L134.162 99.998L133.948 100.366C133.821 100.584 133.708 100.779 133.603 100.951C133.519 101.127 133.416 101.293 133.295 101.446Z" fill="#9DB6CE"/>
<path d="M143.555 100.756C143.555 100.756 142.933 105.078 142.297 107.857C141.73 110.331 140.826 118.694 138.529 119.747C136.232 120.8 133.367 120.142 132.309 118.104C131.251 116.065 130.116 110.64 130.116 110.64L125.304 108.615C125.304 108.615 124.196 104.579 124.827 104.125C125.458 103.671 131.669 104.352 131.669 104.352L133.335 103.975C133.335 103.975 130.684 103.594 130.116 103.444C129.987 103.425 129.864 103.381 129.752 103.313C129.641 103.245 129.545 103.156 129.469 103.049C129.394 102.943 129.34 102.823 129.313 102.696C129.285 102.568 129.284 102.437 129.308 102.309C129.44 101.778 129.549 101.247 130.984 101.247C132.418 101.247 134.67 101.033 135.07 101.174C135.578 101.346 136.15 101.628 136.264 102.913C136.377 104.198 135.773 106.545 135.773 106.545L135.905 106.745L136.754 100.488L143.555 100.756Z" fill="#FFBE9D"/>
<path d="M135.473 108.22C135.353 108.294 135.221 108.346 135.083 108.374C134.721 108.496 134.353 108.596 133.98 108.674C132.747 108.942 131.484 109.038 130.225 108.96C128.964 108.879 127.723 108.608 126.543 108.156C126.186 108.028 125.837 107.876 125.499 107.702C125.37 107.647 125.249 107.574 125.14 107.484C125.14 107.448 125.694 107.702 126.602 108.011C127.777 108.405 128.998 108.647 130.234 108.733C131.471 108.802 132.711 108.725 133.93 108.506C134.892 108.342 135.464 108.184 135.473 108.22Z" fill="#EB996E"/>
<path d="M134.561 106.486C134.438 106.546 134.306 106.587 134.171 106.608C133.917 106.672 133.544 106.754 133.081 106.831C131.866 107.034 130.63 107.08 129.404 106.967C128.172 106.849 126.974 106.501 125.872 105.941C125.54 105.77 125.222 105.573 124.923 105.351C124.714 105.192 124.605 105.092 124.614 105.078C124.623 105.065 125.104 105.396 125.944 105.791C127.047 106.294 128.225 106.612 129.431 106.731C130.64 106.841 131.858 106.819 133.063 106.663C133.985 106.554 134.557 106.449 134.561 106.486Z" fill="#EB996E"/>
<path d="M136.064 102.023C136.091 102.023 136.177 102.236 136.155 102.604C136.148 102.829 136.087 103.048 135.977 103.244C135.901 103.364 135.795 103.461 135.669 103.526C135.548 103.594 135.42 103.651 135.287 103.694C134.838 103.833 134.373 103.912 133.903 103.93C133.715 103.956 133.525 103.972 133.335 103.975C133.335 103.943 133.526 103.83 133.88 103.766C134.331 103.697 134.777 103.599 135.215 103.471C135.437 103.414 135.639 103.294 135.796 103.126C135.896 102.961 135.962 102.777 135.991 102.586C136.003 102.397 136.027 102.209 136.064 102.023Z" fill="#EB996E"/>
<path d="M133.776 109.296C133.834 109.419 133.865 109.553 133.865 109.689C133.865 109.825 133.834 109.959 133.776 110.081C133.682 110.364 133.514 110.616 133.29 110.812C133.014 111.051 132.678 111.208 132.318 111.266C131.965 111.328 131.603 111.312 131.256 111.221C130.982 111.143 130.717 111.035 130.466 110.899C130.228 110.795 130.003 110.666 129.794 110.513C130.054 110.541 130.305 110.619 130.534 110.744C131.073 111.014 131.68 111.115 132.277 111.035C132.596 110.984 132.896 110.853 133.149 110.653C133.347 110.484 133.502 110.271 133.603 110.031C133.695 109.796 133.753 109.548 133.776 109.296Z" fill="#EB996E"/>
<path d="M135.778 101.587C135.778 101.587 135.81 101.587 135.864 101.637C135.941 101.7 136.006 101.777 136.055 101.864C136.225 102.188 136.318 102.547 136.327 102.913C136.353 104.151 136.201 105.387 135.873 106.581V106.517C136.107 107.137 136.394 107.736 136.731 108.306C137.198 109.098 137.72 109.857 138.293 110.576C138.814 111.139 139.271 111.759 139.655 112.424C139.893 112.902 139.94 113.452 139.787 113.963C139.74 114.099 139.671 114.227 139.582 114.34C139.523 114.413 139.482 114.444 139.478 114.44C139.565 114.279 139.638 114.11 139.696 113.936C139.808 113.449 139.74 112.938 139.505 112.497C139.111 111.858 138.655 111.261 138.143 110.712C137.554 109.997 137.019 109.239 136.545 108.442C136.203 107.864 135.912 107.256 135.678 106.626V106.59V106.558C136.001 105.382 136.175 104.169 136.195 102.949C136.198 102.601 136.131 102.255 136 101.932C135.933 101.813 135.859 101.697 135.778 101.587Z" fill="#EB996E"/>
<path d="M93.2924 109.664C93.2924 109.664 92.5887 119.316 97.0788 120.932C103.267 123.166 110.322 117 110.349 116.9C110.376 116.801 117.858 110.776 117.858 110.776L115.529 104.361C115.529 104.361 114.594 104.361 113.082 105.441C112.533 105.832 103.862 110.404 103.862 110.404C103.862 110.404 100.075 110.372 93.2924 109.664Z" fill="#FFBE9D"/>
<path d="M104.175 110.258C104.207 110.331 102.572 110.994 100.597 111.879C99.612 112.333 98.7449 112.787 98.1229 113.114C97.7986 113.319 97.4586 113.498 97.106 113.65C97.3856 113.384 97.6984 113.155 98.0367 112.969C98.8296 112.482 99.6531 112.047 100.502 111.666C101.492 111.212 102.409 110.858 103.076 110.613C103.43 110.459 103.798 110.341 104.175 110.258Z" fill="#EB996E"/>
<path d="M123.824 100.865C123.824 100.865 122.653 99.2081 122.19 99.2127C121.727 99.2172 118.934 99.6667 118.934 99.6667L114.989 103.966C114.989 103.966 114.717 105.36 115.57 105.864C115.57 105.864 115.284 108.057 116.338 108.688C116.338 108.688 117.123 110.749 117.859 110.79C118.17 110.817 118.483 110.817 118.794 110.79C118.794 110.79 118.635 112.029 119.756 112.106C120.868 112.089 121.977 111.979 123.07 111.775C123.232 111.748 123.387 111.689 123.525 111.602C123.664 111.514 123.784 111.4 123.879 111.266L124.841 109.904C124.993 109.693 125.075 109.44 125.075 109.18C125.075 108.92 124.993 108.667 124.841 108.456C125.094 108.156 125.291 107.813 125.422 107.444C125.486 107.015 125.486 106.579 125.422 106.15C125.422 106.15 127.088 104.738 127.129 104.37C127.17 104.002 127.088 103.648 126.353 103.689C126.353 103.689 126.198 102.55 125.268 102.577C124.337 102.604 119.929 102.577 119.929 102.577L120.769 101.76C120.769 101.76 122.961 102.595 123.193 102.041L123.824 100.865Z" fill="#FFBE9D"/>
<path d="M117.495 105.805C117.733 105.77 117.973 105.753 118.213 105.755C118.667 105.727 119.338 105.687 120.165 105.591C121.138 105.476 122.103 105.305 123.057 105.078C123.597 104.947 124.16 104.792 124.741 104.624C125.318 104.402 125.839 104.055 126.267 103.607L126.294 103.585H126.326C126.541 103.533 126.769 103.555 126.97 103.648C127.078 103.717 127.159 103.821 127.197 103.943C127.228 104.051 127.242 104.163 127.238 104.275C127.245 104.324 127.245 104.375 127.238 104.425C127.227 104.485 127.204 104.542 127.17 104.592C127.119 104.672 127.063 104.748 127.002 104.819C126.889 104.956 126.761 105.083 126.639 105.21C126.389 105.46 126.139 105.691 125.885 105.914C125.014 106.608 124.104 107.254 123.161 107.848C122.39 108.312 121.536 108.621 120.646 108.756C120.058 108.845 119.458 108.83 118.875 108.71C118.721 108.678 118.569 108.634 118.421 108.579C118.368 108.565 118.317 108.542 118.272 108.511C119.042 108.707 119.844 108.74 120.628 108.606C121.49 108.458 122.317 108.15 123.066 107.698C123.924 107.185 124.791 106.472 125.749 105.75C125.999 105.528 126.248 105.296 126.489 105.051C126.612 104.928 126.73 104.806 126.839 104.674C126.948 104.543 126.943 104.543 126.988 104.479C127.034 104.415 127.025 104.406 127.025 104.402C127.029 104.363 127.029 104.323 127.025 104.284C127.025 104.093 126.993 103.925 126.87 103.862C126.718 103.798 126.549 103.785 126.389 103.825L126.453 103.798C126.214 104.022 125.961 104.23 125.694 104.42C125.438 104.625 125.146 104.779 124.832 104.874C124.246 105.056 123.674 105.205 123.125 105.328C122.163 105.544 121.188 105.695 120.206 105.782C119.37 105.864 118.698 105.877 118.235 105.877C118.004 105.877 117.827 105.877 117.704 105.877C117.631 105.864 117.561 105.839 117.495 105.805Z" fill="#EB996E"/>
<path d="M125.418 106.141C125.488 106.364 125.52 106.597 125.513 106.831C125.513 106.94 125.513 107.062 125.513 107.198C125.513 107.267 125.513 107.335 125.513 107.407C125.506 107.49 125.483 107.57 125.445 107.643C125.379 107.799 125.303 107.951 125.218 108.097L125.082 108.324L125.009 108.438C124.995 108.463 124.98 108.487 124.964 108.511L124.932 108.538C124.909 108.538 124.932 108.57 124.823 108.538C124.802 108.525 124.787 108.505 124.779 108.482C124.772 108.458 124.773 108.433 124.782 108.411C124.78 108.403 124.78 108.395 124.782 108.388L124.805 108.356L124.986 108.465C124.689 109.005 124.297 109.486 123.829 109.886C123.039 110.566 122.052 110.973 121.014 111.048C120.711 111.071 120.407 111.062 120.106 111.021C119.992 111.014 119.88 110.988 119.774 110.944C119.774 110.899 120.256 110.98 121.018 110.885C122.007 110.761 122.938 110.351 123.697 109.705C124.144 109.316 124.523 108.856 124.818 108.343L125.004 108.451C125.289 107.715 125.43 106.93 125.418 106.141Z" fill="#EB996E"/>
<path d="M120.868 101.787C120.868 101.841 120.414 101.673 120.192 101.147C120.114 100.93 120.101 100.694 120.156 100.47C120.201 100.302 120.265 100.211 120.292 100.22C120.319 100.23 120.256 100.643 120.414 101.065C120.573 101.487 120.914 101.728 120.868 101.787Z" fill="#EB996E"/>
<path d="M118.894 110.817C118.786 110.874 118.666 110.902 118.544 110.899C118.213 110.923 117.881 110.86 117.582 110.717C117.127 110.502 116.769 110.125 116.578 109.659C116.469 109.388 116.414 109.098 116.415 108.806C116.415 108.747 116.401 108.689 116.375 108.636C116.349 108.583 116.312 108.537 116.265 108.501C116.022 108.341 115.822 108.124 115.684 107.868C115.545 107.612 115.472 107.326 115.47 107.035C115.451 106.676 115.465 106.316 115.511 105.959L115.561 106.059C115.321 105.905 115.124 105.692 114.99 105.44C114.857 105.188 114.791 104.905 114.798 104.62C114.785 104.405 114.847 104.193 114.976 104.021C114.945 104.217 114.927 104.416 114.921 104.615C114.932 104.871 115.005 105.121 115.135 105.342C115.265 105.563 115.447 105.748 115.666 105.882L115.72 105.914V105.977C115.69 106.323 115.69 106.671 115.72 107.017C115.743 107.388 115.879 107.743 116.111 108.034C116.208 108.142 116.318 108.238 116.437 108.32C116.506 108.375 116.562 108.444 116.602 108.522C116.642 108.6 116.665 108.686 116.669 108.774C116.663 109.043 116.708 109.311 116.801 109.564C116.965 109.988 117.276 110.339 117.677 110.554C118.056 110.736 118.473 110.826 118.894 110.817Z" fill="#EB996E"/>
<g opacity="0.3">
<path opacity="0.3" d="M106.835 97.8416C106.304 102.658 105.555 106.336 104.425 109.646C106.011 108.302 107.059 106.43 107.376 104.375C107.675 102.345 107.199 99.88 106.835 97.8416Z" fill="black"/>
</g>
<g opacity="0.3">
<path opacity="0.3" d="M137.762 95.1948C137.584 93.4858 137.156 91.8123 136.49 90.228C137.203 93.6331 137.285 97.1401 136.731 100.575L136.895 100.207C137.636 98.6468 137.936 96.9134 137.762 95.1948Z" fill="black"/>
</g>
</svg>
