<svg width="179" height="158" viewBox="0 0 179 158" fill="none" xmlns="http://www.w3.org/2000/svg">
<path d="M136.26 78.7595C136.26 78.8872 136.26 79.007 136.26 79.1347C135.43 80.971 133.865 82.2325 132.579 83.7015C130.687 85.8571 128.779 88.0048 126.815 90.0965C126.184 90.7672 125.889 91.5017 126.001 92.4677C126.44 96.3718 126.815 100.284 127.262 104.188C127.334 104.811 127.334 105.433 127.43 106.056C127.613 107.278 127.374 107.613 126.144 107.877C123.454 108.443 120.771 109.018 118.081 109.577C116.244 109.96 114.424 110.383 112.588 110.743C111.829 110.894 111.294 111.294 110.911 111.964C108.756 115.765 106.552 119.541 104.38 123.333C103.359 125.122 103.175 125.185 101.307 124.355C97.3467 122.591 93.4027 120.778 89.4187 119.054C88.796 118.782 88.1254 118.535 87.8859 117.784C87.7661 117.194 87.798 116.603 87.798 116.012C87.798 108.555 87.798 101.098 87.79 93.6413C87.79 92.9228 87.8779 92.2122 87.9018 91.5017C87.8858 91.3979 87.8699 91.2941 87.8539 91.1983C87.8459 90.5117 88.4607 90.2003 88.82 89.7772C90.3289 87.9569 91.9337 86.2084 93.5145 84.444C95.9256 81.7454 98.3287 79.0549 100.732 76.3484C102.512 74.3444 104.317 72.3644 106.097 70.3525C108.069 68.117 107.813 68.7158 105.889 66.7997C105.69 66.6001 105.434 66.4724 105.227 66.2808C104.293 65.4345 104.165 65.4025 103.343 66.3287C101.051 68.9154 98.7359 71.4862 96.4365 74.081C94.6561 76.0849 92.8757 78.0888 91.0714 80.0688C90.3768 80.8273 89.762 81.6576 88.9876 82.3442C88.5645 82.7115 88.1972 82.8951 87.8859 82.2404C87.7741 81.6496 87.798 81.0588 87.798 80.46C87.798 67.5981 87.798 54.7361 87.798 41.8742C87.798 41.3153 87.7741 40.7485 87.8859 40.1976C88.0535 39.5509 88.5804 39.2635 89.1313 39.024C92.277 37.6428 95.4066 36.2216 98.5443 34.8245C99.7418 34.2895 100.923 33.7147 102.153 33.2516C103.135 32.8844 103.366 32.9483 103.925 33.8584C105.762 36.8683 107.446 39.974 109.243 43.0159C109.817 43.9819 110.384 44.9559 110.911 45.9459C111.294 46.6645 111.869 47.0397 112.668 47.2074C117.067 48.1335 121.474 49.0596 125.865 49.9937C127.478 50.337 127.573 50.5127 127.414 52.1334C126.983 56.5724 126.488 61.0114 126.017 65.4425C125.913 66.4085 126.192 67.151 126.823 67.8216C128.108 69.1789 129.338 70.6 130.591 71.9892C132.26 73.8494 133.953 75.6777 135.597 77.5619C135.893 77.9132 136.004 78.3763 136.26 78.7595Z" fill="#0395EA"/>
<path d="M88.2213 91.0947C88.2293 100.053 88.2372 109.01 88.2452 117.968C88.2452 118.623 87.6864 118.751 87.2552 118.95C84.2134 120.332 81.1556 121.681 78.1058 123.038C77.0519 123.509 75.998 123.988 74.9442 124.467C73.4432 125.146 73.1318 125.074 72.3095 123.661C70.106 119.853 67.8944 116.044 65.7308 112.212C65.2438 111.358 64.6211 110.879 63.647 110.679C59.5194 109.817 55.3997 108.915 51.2721 108.068C50.841 107.981 50.4258 107.829 50.0027 107.757C49.1724 107.613 48.9408 107.086 49.0207 106.336C49.2682 103.917 49.5316 101.498 49.7791 99.0786C50.0107 96.8431 50.2262 94.6076 50.4977 92.3801C50.6015 91.478 50.322 90.7914 49.7392 90.1766C48.4139 88.7635 47.1445 87.3104 45.8511 85.8733C44.1984 84.045 42.5378 82.2247 40.9171 80.3645C40.5977 79.9972 40.4939 79.5342 40.2305 79.1429C40.2305 79.0152 40.2305 78.8954 40.2305 78.7677C41.0847 76.9075 42.6735 75.6301 43.9749 74.1371C45.8591 71.9735 47.7752 69.8338 49.7392 67.742C50.354 67.0874 50.5855 66.3608 50.4817 65.4427C50.0506 61.5386 49.6674 57.6265 49.2282 53.7224C49.1484 52.9799 49.1245 52.2295 49.0207 51.487C48.9169 50.7604 49.2442 50.3293 50.0027 50.1616C53.1084 49.4511 56.2301 48.8283 59.3438 48.1577C60.8687 47.8304 62.3936 47.495 63.9265 47.1757C64.6849 47.016 65.2119 46.6088 65.5951 45.9462C67.7667 42.1219 69.9782 38.3136 72.1738 34.4974C72.2376 34.3856 72.2935 34.2818 72.3574 34.17C73.1558 32.8687 73.4592 32.7729 74.8563 33.4116C78.9201 35.2558 83.0078 37.0442 87.0796 38.8885C87.5586 39.104 88.2133 39.2078 88.2452 39.9423C88.2452 54.1136 88.2452 68.2929 88.2452 82.4642C88.2692 82.592 88.3091 82.7197 88.2771 82.8554C87.4069 84.3564 86.1535 85.546 85.0118 86.8154C84.2294 87.6936 83.8541 87.6537 82.9919 86.8074C79.5269 83.3744 76.0938 79.9174 72.6448 76.4763C71.575 75.4065 71.5111 75.4065 70.4093 76.5083C69.8744 77.0352 69.3555 77.5701 68.8206 78.0971C68.3415 78.5681 68.3495 79.0072 68.8285 79.4623C68.9643 79.59 69.092 79.7258 69.2277 79.8615C73.8663 84.5081 78.5049 89.1387 83.1436 93.7773C84.1894 94.8312 84.2054 94.7913 85.2273 93.6735C85.882 92.963 86.4888 92.2045 87.1754 91.5179C87.4628 91.2305 87.7343 90.8712 88.2213 91.0947Z" fill="#0DA5FD"/>
<path d="M88.1174 82.7116C88.1653 82.6237 88.2052 82.5359 88.2531 82.4481C91.3429 79.015 94.4326 75.582 97.5144 72.1489C99.5582 69.8736 101.602 67.5982 103.622 65.2988C104.029 64.8278 104.277 64.708 104.78 65.195C105.786 66.177 106.847 67.0952 107.917 68.0053C108.277 68.3167 108.332 68.5083 107.989 68.8915C101.426 76.2127 94.8797 83.5499 88.325 90.879C88.309 90.903 88.2691 90.9109 88.2452 90.9269C87.83 90.7273 87.83 90.3281 87.822 89.9609C87.7741 87.9969 87.7821 86.0328 87.814 84.0688C87.814 83.5898 88.0535 83.1746 88.1174 82.7116Z" fill="#F5EEE9"/>
<path d="M88.1178 82.7121C88.3892 83.7899 88.2216 84.8837 88.2375 85.9695C88.2695 87.6222 88.2455 89.2748 88.2375 90.9275C88.2296 90.9834 88.2216 91.0393 88.2216 91.0952C87.0639 92.3646 85.8983 93.618 84.7646 94.9034C84.3973 95.3266 84.1897 95.3825 83.7586 94.9434C78.5212 89.674 73.2599 84.4207 67.9985 79.1753C67.6313 78.816 67.5834 78.6005 67.9826 78.2172C69.0045 77.2512 70.0105 76.2692 70.9605 75.2313C71.4475 74.6964 71.711 74.872 72.1262 75.2952C75.8466 79.0396 79.599 82.752 83.2956 86.5124C83.8943 87.1192 84.1977 87.1352 84.7486 86.4725C85.8264 85.1871 86.9921 83.9656 88.1178 82.7121Z" fill="#FDF9F3"/>
</svg>
