<svg width="25" height="24" viewBox="0 0 25 24" fill="none" xmlns="http://www.w3.org/2000/svg">
<path d="M12.5 12H12C12 12.1326 12.0527 12.2598 12.1464 12.3535L12.5 12ZM12.5 22.7C6.59054 22.7 1.79999 17.9094 1.79999 12H0.799988C0.799988 18.4617 6.03826 23.7 12.5 23.7V22.7ZM23.2 12C23.2 17.9094 18.4094 22.7 12.5 22.7V23.7C18.9617 23.7 24.2 18.4617 24.2 12H23.2ZM12.5 1.29999C18.4094 1.29999 23.2 6.09054 23.2 12H24.2C24.2 5.53826 18.9617 0.299988 12.5 0.299988V1.29999ZM12.5 0.299988C6.03826 0.299988 0.799988 5.53826 0.799988 12H1.79999C1.79999 6.09054 6.59054 1.29999 12.5 1.29999V0.299988ZM12 4.79999V12H13V4.79999H12ZM12.1464 12.3535L16.9464 17.1535L17.6535 16.4464L12.8535 11.6464L12.1464 12.3535Z" fill="black"/>
</svg>
