<svg width="20" height="22" viewBox="0 0 20 22" fill="none" xmlns="http://www.w3.org/2000/svg">
<g clip-path="url(#clip0_762_771)">
<path d="M10 13.5417C11.3807 13.5417 12.5 12.3291 12.5 10.8333C12.5 9.33756 11.3807 8.125 10 8.125C8.61929 8.125 7.5 9.33756 7.5 10.8333C7.5 12.3291 8.61929 13.5417 10 13.5417Z" stroke="#1976D2" stroke-width="2" stroke-linecap="round" stroke-linejoin="round"/>
<path d="M16.1667 13.5417C16.0558 13.814 16.0227 14.116 16.0717 14.4089C16.1207 14.7017 16.2496 14.972 16.4417 15.1847L16.4917 15.2389C16.6467 15.4066 16.7696 15.6057 16.8535 15.8249C16.9373 16.0441 16.9805 16.279 16.9805 16.5163C16.9805 16.7536 16.9373 16.9885 16.8535 17.2077C16.7696 17.4269 16.6467 17.6261 16.4917 17.7937C16.3369 17.9616 16.1531 18.0948 15.9508 18.1857C15.7484 18.2765 15.5316 18.3233 15.3125 18.3233C15.0935 18.3233 14.8766 18.2765 14.6743 18.1857C14.472 18.0948 14.2882 17.9616 14.1334 17.7937L14.0834 17.7396C13.887 17.5315 13.6375 17.3918 13.3672 17.3387C13.0969 17.2856 12.8181 17.3215 12.5667 17.4417C12.3202 17.5561 12.11 17.7461 11.962 17.9883C11.8139 18.2305 11.7344 18.5144 11.7334 18.8049V18.9583C11.7334 19.4372 11.5578 19.8964 11.2452 20.2351C10.9327 20.5737 10.5087 20.7639 10.0667 20.7639C9.62468 20.7639 9.20076 20.5737 8.8882 20.2351C8.57563 19.8964 8.40004 19.4372 8.40004 18.9583V18.8771C8.39359 18.5783 8.30431 18.2885 8.1438 18.0454C7.98329 17.8022 7.75899 17.6171 7.50004 17.5139C7.24869 17.3937 6.96988 17.3579 6.69955 17.411C6.42922 17.4641 6.17977 17.6037 5.98337 17.8118L5.93337 17.866C5.77858 18.0338 5.59477 18.167 5.39244 18.2579C5.19011 18.3487 4.97323 18.3955 4.75421 18.3955C4.53518 18.3955 4.3183 18.3487 4.11597 18.2579C3.91364 18.167 3.72983 18.0338 3.57504 17.866C3.42008 17.6983 3.29715 17.4992 3.21327 17.28C3.1294 17.0608 3.08623 16.8258 3.08623 16.5885C3.08623 16.3513 3.1294 16.1163 3.21327 15.8971C3.29715 15.6779 3.42008 15.4788 3.57504 15.3111L3.62504 15.2569C3.81715 15.0442 3.94603 14.7739 3.99504 14.4811C4.04406 14.1882 4.01097 13.8862 3.90004 13.6139C3.7944 13.3469 3.619 13.1192 3.39543 12.9587C3.17185 12.7983 2.90986 12.7123 2.64171 12.7111H2.50004C2.05801 12.7111 1.63409 12.5209 1.32153 12.1823C1.00897 11.8437 0.833374 11.3844 0.833374 10.9056C0.833374 10.4267 1.00897 9.96744 1.32153 9.62883C1.63409 9.29023 2.05801 9.1 2.50004 9.1H2.57504C2.85087 9.09301 3.11838 8.99629 3.34279 8.8224C3.5672 8.64852 3.73814 8.40552 3.83337 8.125C3.9443 7.85271 3.97739 7.55066 3.92838 7.2578C3.87936 6.96494 3.75049 6.69471 3.55837 6.48194L3.50837 6.42778C3.35341 6.26009 3.23048 6.06096 3.14661 5.84177C3.06273 5.62258 3.01956 5.38762 3.01956 5.15035C3.01956 4.91307 3.06273 4.67812 3.14661 4.45893C3.23048 4.23974 3.35341 4.0406 3.50837 3.87292C3.66316 3.70504 3.84698 3.57187 4.04931 3.481C4.25164 3.39014 4.46851 3.34337 4.68754 3.34337C4.90657 3.34337 5.12344 3.39014 5.32577 3.481C5.5281 3.57187 5.71192 3.70504 5.86671 3.87292L5.91671 3.92708C6.11311 4.13521 6.36255 4.27482 6.63288 4.32792C6.90321 4.38102 7.18203 4.34517 7.43337 4.225H7.50004C7.74651 4.11056 7.95672 3.92054 8.10478 3.67834C8.25285 3.43613 8.3323 3.15231 8.33337 2.86181V2.70833C8.33337 2.22947 8.50897 1.77022 8.82153 1.43161C9.13409 1.09301 9.55801 0.902778 10 0.902778C10.4421 0.902778 10.866 1.09301 11.1786 1.43161C11.4911 1.77022 11.6667 2.22947 11.6667 2.70833V2.78958C11.6678 3.08008 11.7472 3.36391 11.8953 3.60611C12.0434 3.84832 12.2536 4.03834 12.5 4.15278C12.7514 4.27295 13.0302 4.3088 13.3005 4.2557C13.5709 4.2026 13.8203 4.06298 14.0167 3.85486L14.0667 3.80069C14.2215 3.63282 14.4053 3.49964 14.6076 3.40878C14.81 3.31792 15.0268 3.27115 15.2459 3.27115C15.4649 3.27115 15.6818 3.31792 15.8841 3.40878C16.0864 3.49964 16.2702 3.63282 16.425 3.80069C16.58 3.96838 16.7029 4.16751 16.7868 4.3867C16.8707 4.6059 16.9139 4.84085 16.9139 5.07812C16.9139 5.3154 16.8707 5.55035 16.7868 5.76954C16.7029 5.98874 16.58 6.18787 16.425 6.35556L16.375 6.40972C16.1829 6.62249 16.0541 6.89272 16.005 7.18558C15.956 7.47844 15.9891 7.78049 16.1 8.05278V8.125C16.2057 8.39201 16.3811 8.61974 16.6047 8.78014C16.8282 8.94054 17.0902 9.02662 17.3584 9.02778H17.5C17.9421 9.02778 18.366 9.21801 18.6785 9.55661C18.9911 9.89522 19.1667 10.3545 19.1667 10.8333C19.1667 11.3122 18.9911 11.7714 18.6785 12.1101C18.366 12.4487 17.9421 12.6389 17.5 12.6389H17.425C17.1569 12.64 16.8949 12.7261 16.6713 12.8865C16.4477 13.0469 16.2723 13.2747 16.1667 13.5417V13.5417Z" stroke="#1976D2" stroke-width="2" stroke-linecap="round" stroke-linejoin="round"/>
</g>
<defs>
<clipPath id="clip0_762_771">
<rect width="20" height="21.6667" fill="white"/>
</clipPath>
</defs>
</svg>
