<svg width="24" height="24" viewBox="0 0 24 24" fill="none" xmlns="http://www.w3.org/2000/svg">
<path d="M12 0.800049L12.3254 0.420421C12.1381 0.259925 11.8618 0.259925 11.6746 0.420421L12 0.800049ZM0.799988 10.4L0.474592 10.0204L0.299988 10.1701V10.4H0.799988ZM8.79999 23.2V23.7C9.07613 23.7 9.29999 23.4762 9.29999 23.2H8.79999ZM15.2 23.2H14.7C14.7 23.4762 14.9238 23.7 15.2 23.7V23.2ZM23.2 10.4H23.7V10.1701L23.5254 10.0204L23.2 10.4ZM2.39999 23.7H8.79999V22.7H2.39999V23.7ZM23.5254 10.0204L12.3254 0.420421L11.6746 1.17968L22.8746 10.7797L23.5254 10.0204ZM11.6746 0.420421L0.474592 10.0204L1.12538 10.7797L12.3254 1.17968L11.6746 0.420421ZM9.29999 23.2V18.4H8.29999V23.2H9.29999ZM14.7 18.4V23.2H15.7V18.4H14.7ZM15.2 23.7H21.6V22.7H15.2V23.7ZM23.7 21.6V10.4H22.7V21.6H23.7ZM0.299988 10.4V21.6H1.29999V10.4H0.299988ZM12 15.7C13.4912 15.7 14.7 16.9089 14.7 18.4H15.7C15.7 16.3566 14.0434 14.7 12 14.7V15.7ZM12 14.7C9.95653 14.7 8.29999 16.3566 8.29999 18.4H9.29999C9.29999 16.9089 10.5088 15.7 12 15.7V14.7ZM21.6 23.7C22.7598 23.7 23.7 22.7598 23.7 21.6H22.7C22.7 22.2076 22.2075 22.7 21.6 22.7V23.7ZM2.39999 22.7C1.79247 22.7 1.29999 22.2076 1.29999 21.6H0.299988C0.299988 22.7598 1.24019 23.7 2.39999 23.7V22.7Z" fill="black"/>
</svg>
